G04 EAGLE Gerber RS-274X export*
G75*
%MOMM*%
%FSLAX34Y34*%
%LPD*%
%INSoldermask Top*%
%IPPOS*%
%AMOC8*
5,1,8,0,0,1.08239X$1,22.5*%
G01*
%ADD10R,1.303200X1.203200*%
%ADD11C,1.727200*%
%ADD12R,0.653200X0.453200*%
%ADD13R,0.453200X0.653200*%
%ADD14R,0.703200X1.103200*%
%ADD15R,1.603200X0.703200*%
%ADD16R,0.750000X0.450000*%
%ADD17C,0.959600*%


D10*
X461400Y558800D03*
X478400Y558800D03*
X410600Y558800D03*
X427600Y558800D03*
X410600Y482600D03*
X427600Y482600D03*
X639200Y558800D03*
X656200Y558800D03*
X550300Y558800D03*
X567300Y558800D03*
D11*
X640080Y419100D02*
X655320Y419100D01*
X655320Y444500D02*
X640080Y444500D01*
X640080Y469900D02*
X655320Y469900D01*
X655320Y495300D02*
X640080Y495300D01*
D12*
X407350Y388500D03*
X407350Y383500D03*
X407350Y378500D03*
D13*
X414100Y371750D03*
X419100Y371750D03*
X424100Y371750D03*
D12*
X430850Y373500D03*
D13*
X419100Y390250D03*
X414100Y390250D03*
D14*
X549400Y459900D03*
X541400Y459900D03*
X533400Y459900D03*
X525400Y459900D03*
X517400Y459900D03*
D15*
X512900Y469900D03*
D14*
X517400Y479900D03*
X525400Y479900D03*
X533400Y479900D03*
X541400Y479900D03*
X549400Y479900D03*
D15*
X553900Y469900D03*
D16*
X549650Y463150D03*
D17*
X584200Y508000D03*
X414274Y350012D03*
X451866Y373380D03*
X451612Y424942D03*
X428498Y432054D03*
X584200Y469900D03*
X584200Y406400D03*
X533400Y444500D03*
M02*
