G04 EAGLE Gerber RS-274X export*
G75*
%MOMM*%
%FSLAX34Y34*%
%LPD*%
%INTop Copper*%
%IPPOS*%
%AMOC8*
5,1,8,0,0,1.08239X$1,22.5*%
G01*
%ADD10R,1.100000X1.000000*%
%ADD11R,1.200000X2.000000*%
%ADD12R,0.600000X1.350000*%
%ADD13R,0.450000X0.250000*%
%ADD14R,0.250000X0.450000*%
%ADD15R,0.500000X0.900000*%
%ADD16R,1.400000X0.500000*%
%ADD17R,0.580000X0.250000*%
%ADD18C,0.152400*%
%ADD19C,0.756400*%

G36*
X188998Y10164D02*
X188998Y10164D01*
X189017Y10162D01*
X189119Y10184D01*
X189221Y10200D01*
X189238Y10210D01*
X189258Y10214D01*
X189347Y10267D01*
X189438Y10316D01*
X189452Y10330D01*
X189469Y10340D01*
X189536Y10419D01*
X189608Y10494D01*
X189616Y10512D01*
X189629Y10527D01*
X189668Y10623D01*
X189711Y10717D01*
X189713Y10737D01*
X189721Y10755D01*
X189739Y10922D01*
X189739Y242978D01*
X189736Y242998D01*
X189738Y243017D01*
X189716Y243119D01*
X189700Y243221D01*
X189690Y243238D01*
X189686Y243258D01*
X189633Y243347D01*
X189584Y243438D01*
X189570Y243452D01*
X189560Y243469D01*
X189481Y243536D01*
X189406Y243608D01*
X189388Y243616D01*
X189373Y243629D01*
X189277Y243668D01*
X189183Y243711D01*
X189163Y243713D01*
X189145Y243721D01*
X188978Y243739D01*
X10922Y243739D01*
X10902Y243736D01*
X10883Y243738D01*
X10781Y243716D01*
X10679Y243700D01*
X10662Y243690D01*
X10642Y243686D01*
X10553Y243633D01*
X10462Y243584D01*
X10448Y243570D01*
X10431Y243560D01*
X10364Y243481D01*
X10292Y243406D01*
X10284Y243388D01*
X10271Y243373D01*
X10232Y243277D01*
X10189Y243183D01*
X10187Y243163D01*
X10179Y243145D01*
X10161Y242978D01*
X10161Y10922D01*
X10164Y10902D01*
X10162Y10883D01*
X10184Y10781D01*
X10200Y10679D01*
X10210Y10662D01*
X10214Y10642D01*
X10267Y10553D01*
X10316Y10462D01*
X10330Y10448D01*
X10340Y10431D01*
X10419Y10364D01*
X10494Y10292D01*
X10512Y10284D01*
X10527Y10271D01*
X10623Y10232D01*
X10717Y10189D01*
X10737Y10187D01*
X10755Y10179D01*
X10922Y10161D01*
X188978Y10161D01*
X188998Y10164D01*
G37*
%LPC*%
G36*
X95065Y28193D02*
X95065Y28193D01*
X86105Y37153D01*
X86105Y45143D01*
X89192Y48230D01*
X89203Y48246D01*
X89219Y48258D01*
X89275Y48346D01*
X89335Y48429D01*
X89341Y48448D01*
X89352Y48465D01*
X89377Y48566D01*
X89408Y48665D01*
X89407Y48684D01*
X89412Y48704D01*
X89404Y48807D01*
X89401Y48910D01*
X89394Y48929D01*
X89393Y48949D01*
X89353Y49044D01*
X89317Y49141D01*
X89304Y49157D01*
X89297Y49175D01*
X89192Y49306D01*
X58712Y79786D01*
X57149Y81349D01*
X57149Y97514D01*
X57146Y97534D01*
X57148Y97553D01*
X57126Y97655D01*
X57110Y97757D01*
X57100Y97774D01*
X57096Y97794D01*
X57043Y97883D01*
X56994Y97974D01*
X56980Y97988D01*
X56970Y98005D01*
X56891Y98072D01*
X56816Y98144D01*
X56798Y98152D01*
X56783Y98165D01*
X56687Y98204D01*
X56593Y98247D01*
X56573Y98249D01*
X56555Y98257D01*
X56388Y98275D01*
X55668Y98275D01*
X55338Y98605D01*
X55322Y98617D01*
X55310Y98633D01*
X55223Y98689D01*
X55139Y98749D01*
X55120Y98755D01*
X55103Y98766D01*
X55002Y98791D01*
X54903Y98821D01*
X54884Y98821D01*
X54864Y98826D01*
X54761Y98818D01*
X54658Y98815D01*
X54639Y98808D01*
X54619Y98807D01*
X54524Y98766D01*
X54427Y98731D01*
X54411Y98718D01*
X54393Y98710D01*
X54262Y98605D01*
X53932Y98275D01*
X47668Y98275D01*
X47338Y98605D01*
X47322Y98617D01*
X47310Y98633D01*
X47223Y98689D01*
X47139Y98749D01*
X47120Y98755D01*
X47103Y98766D01*
X47002Y98791D01*
X46903Y98821D01*
X46884Y98821D01*
X46864Y98826D01*
X46761Y98818D01*
X46658Y98815D01*
X46639Y98808D01*
X46619Y98807D01*
X46524Y98766D01*
X46427Y98731D01*
X46411Y98718D01*
X46393Y98710D01*
X46262Y98605D01*
X45932Y98275D01*
X39668Y98275D01*
X39338Y98605D01*
X39322Y98617D01*
X39310Y98633D01*
X39223Y98689D01*
X39139Y98749D01*
X39120Y98755D01*
X39103Y98766D01*
X39002Y98791D01*
X38903Y98821D01*
X38884Y98821D01*
X38864Y98826D01*
X38761Y98818D01*
X38658Y98815D01*
X38639Y98808D01*
X38619Y98807D01*
X38524Y98766D01*
X38427Y98731D01*
X38411Y98718D01*
X38393Y98710D01*
X38262Y98605D01*
X37932Y98275D01*
X31668Y98275D01*
X30775Y99168D01*
X30775Y100681D01*
X30764Y100751D01*
X30762Y100823D01*
X30744Y100872D01*
X30736Y100923D01*
X30702Y100987D01*
X30677Y101054D01*
X30645Y101095D01*
X30620Y101141D01*
X30568Y101190D01*
X30524Y101246D01*
X30480Y101274D01*
X30442Y101310D01*
X30377Y101340D01*
X30317Y101379D01*
X30266Y101392D01*
X30219Y101414D01*
X30148Y101422D01*
X30078Y101439D01*
X30026Y101435D01*
X29975Y101441D01*
X29904Y101426D01*
X29833Y101420D01*
X29785Y101400D01*
X29734Y101389D01*
X29673Y101352D01*
X29607Y101324D01*
X29551Y101279D01*
X29523Y101262D01*
X29508Y101245D01*
X29476Y101219D01*
X28106Y99849D01*
X23710Y99849D01*
X20601Y102958D01*
X20601Y107354D01*
X22557Y109310D01*
X22569Y109326D01*
X22584Y109339D01*
X22640Y109426D01*
X22701Y109510D01*
X22707Y109529D01*
X22717Y109546D01*
X22743Y109646D01*
X22773Y109745D01*
X22773Y109765D01*
X22777Y109784D01*
X22769Y109887D01*
X22767Y109991D01*
X22760Y110009D01*
X22758Y110029D01*
X22718Y110124D01*
X22682Y110222D01*
X22670Y110237D01*
X22662Y110256D01*
X22557Y110387D01*
X21775Y111168D01*
X21775Y117432D01*
X22668Y118325D01*
X22860Y118325D01*
X22880Y118328D01*
X22899Y118326D01*
X23001Y118348D01*
X23103Y118364D01*
X23120Y118374D01*
X23140Y118378D01*
X23229Y118431D01*
X23320Y118480D01*
X23334Y118494D01*
X23351Y118504D01*
X23418Y118583D01*
X23490Y118658D01*
X23498Y118676D01*
X23511Y118691D01*
X23550Y118787D01*
X23593Y118881D01*
X23595Y118901D01*
X23603Y118919D01*
X23621Y119086D01*
X23621Y206687D01*
X46297Y229363D01*
X75623Y229363D01*
X75662Y229324D01*
X75678Y229313D01*
X75690Y229297D01*
X75778Y229241D01*
X75861Y229181D01*
X75881Y229175D01*
X75897Y229164D01*
X75998Y229139D01*
X76097Y229108D01*
X76117Y229109D01*
X76136Y229104D01*
X76239Y229112D01*
X76342Y229115D01*
X76361Y229122D01*
X76381Y229123D01*
X76476Y229164D01*
X76573Y229199D01*
X76589Y229212D01*
X76607Y229219D01*
X76738Y229324D01*
X76777Y229363D01*
X106103Y229363D01*
X112818Y222648D01*
X112892Y222595D01*
X112962Y222535D01*
X112992Y222523D01*
X113018Y222504D01*
X113105Y222477D01*
X113190Y222443D01*
X113231Y222439D01*
X113253Y222432D01*
X113285Y222433D01*
X113357Y222425D01*
X115824Y222425D01*
X115844Y222428D01*
X115863Y222426D01*
X115965Y222448D01*
X116067Y222464D01*
X116084Y222474D01*
X116104Y222478D01*
X116193Y222531D01*
X116284Y222580D01*
X116298Y222594D01*
X116315Y222604D01*
X116382Y222683D01*
X116454Y222758D01*
X116462Y222776D01*
X116475Y222791D01*
X116514Y222887D01*
X116557Y222981D01*
X116559Y223001D01*
X116567Y223019D01*
X116585Y223186D01*
X116585Y223451D01*
X122497Y229363D01*
X144203Y229363D01*
X150076Y223490D01*
X150918Y222648D01*
X150992Y222595D01*
X151062Y222535D01*
X151092Y222523D01*
X151118Y222504D01*
X151205Y222477D01*
X151290Y222443D01*
X151331Y222439D01*
X151353Y222432D01*
X151385Y222433D01*
X151456Y222425D01*
X154332Y222425D01*
X155225Y221532D01*
X155225Y210268D01*
X154332Y209375D01*
X153836Y209375D01*
X153766Y209364D01*
X153694Y209362D01*
X153645Y209344D01*
X153594Y209336D01*
X153530Y209302D01*
X153463Y209277D01*
X153422Y209245D01*
X153376Y209220D01*
X153327Y209168D01*
X153271Y209124D01*
X153243Y209080D01*
X153207Y209042D01*
X153177Y208977D01*
X153138Y208917D01*
X153125Y208866D01*
X153103Y208819D01*
X153095Y208748D01*
X153078Y208678D01*
X153082Y208626D01*
X153076Y208575D01*
X153091Y208504D01*
X153097Y208433D01*
X153117Y208385D01*
X153128Y208334D01*
X153165Y208273D01*
X153193Y208207D01*
X153238Y208151D01*
X153255Y208123D01*
X153272Y208108D01*
X153298Y208076D01*
X162307Y199067D01*
X162307Y136213D01*
X145766Y119672D01*
X145713Y119598D01*
X145653Y119528D01*
X145641Y119498D01*
X145622Y119472D01*
X145595Y119385D01*
X145561Y119300D01*
X145557Y119259D01*
X145550Y119237D01*
X145551Y119205D01*
X145543Y119133D01*
X145543Y52393D01*
X132011Y38861D01*
X130062Y38861D01*
X130042Y38858D01*
X130023Y38860D01*
X129921Y38838D01*
X129819Y38822D01*
X129802Y38812D01*
X129782Y38808D01*
X129693Y38755D01*
X129602Y38706D01*
X129588Y38692D01*
X129571Y38682D01*
X129504Y38603D01*
X129432Y38528D01*
X129424Y38510D01*
X129411Y38495D01*
X129372Y38399D01*
X129349Y38348D01*
X129300Y38299D01*
X122021Y38299D01*
X121931Y38285D01*
X121840Y38277D01*
X121810Y38265D01*
X121778Y38260D01*
X121698Y38217D01*
X121614Y38181D01*
X121581Y38155D01*
X121561Y38144D01*
X121539Y38121D01*
X121483Y38076D01*
X121174Y37768D01*
X121150Y37764D01*
X121078Y37762D01*
X121029Y37744D01*
X120978Y37736D01*
X120914Y37702D01*
X120847Y37677D01*
X120806Y37645D01*
X120760Y37620D01*
X120711Y37568D01*
X120655Y37524D01*
X120627Y37480D01*
X120591Y37442D01*
X120561Y37377D01*
X120522Y37317D01*
X120509Y37266D01*
X120487Y37219D01*
X120479Y37148D01*
X120462Y37078D01*
X120466Y37026D01*
X120460Y36975D01*
X120475Y36904D01*
X120481Y36833D01*
X120501Y36785D01*
X120512Y36734D01*
X120549Y36673D01*
X120577Y36607D01*
X120622Y36551D01*
X120639Y36523D01*
X120656Y36508D01*
X120682Y36476D01*
X121159Y35999D01*
X121159Y34105D01*
X115247Y28193D01*
X95065Y28193D01*
G37*
%LPD*%
G36*
X146386Y126981D02*
X146386Y126981D01*
X146457Y126987D01*
X146505Y127007D01*
X146556Y127018D01*
X146617Y127055D01*
X146683Y127083D01*
X146739Y127128D01*
X146767Y127145D01*
X146782Y127162D01*
X146814Y127188D01*
X157510Y137884D01*
X157563Y137958D01*
X157623Y138028D01*
X157635Y138058D01*
X157654Y138084D01*
X157681Y138171D01*
X157715Y138256D01*
X157719Y138297D01*
X157726Y138319D01*
X157725Y138351D01*
X157733Y138423D01*
X157733Y196857D01*
X157719Y196948D01*
X157711Y197038D01*
X157699Y197068D01*
X157694Y197100D01*
X157651Y197181D01*
X157615Y197265D01*
X157589Y197297D01*
X157578Y197318D01*
X157555Y197340D01*
X157510Y197396D01*
X145754Y209152D01*
X145680Y209205D01*
X145610Y209265D01*
X145580Y209277D01*
X145554Y209296D01*
X145467Y209323D01*
X145382Y209357D01*
X145341Y209361D01*
X145319Y209368D01*
X145287Y209367D01*
X145215Y209375D01*
X142068Y209375D01*
X141175Y210268D01*
X141175Y221532D01*
X142068Y222425D01*
X142836Y222425D01*
X142906Y222436D01*
X142978Y222438D01*
X143027Y222456D01*
X143078Y222464D01*
X143142Y222498D01*
X143209Y222523D01*
X143250Y222555D01*
X143296Y222580D01*
X143345Y222632D01*
X143401Y222676D01*
X143429Y222720D01*
X143465Y222758D01*
X143495Y222823D01*
X143534Y222883D01*
X143547Y222934D01*
X143569Y222981D01*
X143577Y223052D01*
X143594Y223122D01*
X143590Y223174D01*
X143596Y223225D01*
X143581Y223296D01*
X143575Y223367D01*
X143555Y223415D01*
X143544Y223466D01*
X143507Y223527D01*
X143479Y223593D01*
X143434Y223649D01*
X143417Y223677D01*
X143400Y223692D01*
X143374Y223724D01*
X142532Y224566D01*
X142458Y224619D01*
X142388Y224679D01*
X142358Y224691D01*
X142332Y224710D01*
X142245Y224737D01*
X142160Y224771D01*
X142119Y224775D01*
X142097Y224782D01*
X142065Y224781D01*
X141993Y224789D01*
X124707Y224789D01*
X124616Y224775D01*
X124526Y224767D01*
X124496Y224755D01*
X124464Y224750D01*
X124383Y224707D01*
X124299Y224671D01*
X124267Y224645D01*
X124246Y224634D01*
X124224Y224611D01*
X124168Y224566D01*
X121382Y221780D01*
X121329Y221706D01*
X121269Y221636D01*
X121257Y221606D01*
X121238Y221580D01*
X121211Y221493D01*
X121177Y221408D01*
X121173Y221367D01*
X121166Y221345D01*
X121167Y221313D01*
X121159Y221241D01*
X121159Y209365D01*
X119596Y207802D01*
X115286Y203492D01*
X113723Y201929D01*
X98113Y201929D01*
X92201Y207841D01*
X92201Y208614D01*
X92198Y208634D01*
X92200Y208653D01*
X92178Y208755D01*
X92162Y208857D01*
X92152Y208874D01*
X92148Y208894D01*
X92095Y208983D01*
X92046Y209074D01*
X92032Y209088D01*
X92022Y209105D01*
X91943Y209172D01*
X91868Y209244D01*
X91850Y209252D01*
X91835Y209265D01*
X91739Y209304D01*
X91645Y209347D01*
X91625Y209349D01*
X91607Y209357D01*
X91440Y209375D01*
X86968Y209375D01*
X86075Y210268D01*
X86075Y221532D01*
X86968Y222425D01*
X99232Y222425D01*
X100125Y221532D01*
X100125Y210268D01*
X99232Y209375D01*
X98972Y209375D01*
X98902Y209364D01*
X98830Y209362D01*
X98781Y209344D01*
X98730Y209336D01*
X98666Y209302D01*
X98599Y209277D01*
X98558Y209245D01*
X98512Y209220D01*
X98463Y209168D01*
X98407Y209124D01*
X98379Y209080D01*
X98343Y209042D01*
X98313Y208977D01*
X98274Y208917D01*
X98261Y208866D01*
X98239Y208819D01*
X98231Y208748D01*
X98214Y208678D01*
X98218Y208626D01*
X98212Y208575D01*
X98227Y208504D01*
X98233Y208433D01*
X98253Y208385D01*
X98264Y208334D01*
X98301Y208273D01*
X98329Y208207D01*
X98374Y208151D01*
X98391Y208123D01*
X98408Y208108D01*
X98434Y208076D01*
X99784Y206726D01*
X99858Y206673D01*
X99928Y206613D01*
X99958Y206601D01*
X99984Y206582D01*
X100071Y206555D01*
X100156Y206521D01*
X100197Y206517D01*
X100219Y206510D01*
X100251Y206511D01*
X100323Y206503D01*
X111514Y206503D01*
X111604Y206517D01*
X111695Y206525D01*
X111724Y206537D01*
X111756Y206542D01*
X111837Y206585D01*
X111921Y206621D01*
X111953Y206647D01*
X111974Y206658D01*
X111996Y206681D01*
X112052Y206726D01*
X113402Y208076D01*
X113444Y208134D01*
X113493Y208186D01*
X113515Y208233D01*
X113545Y208275D01*
X113566Y208344D01*
X113597Y208409D01*
X113602Y208461D01*
X113618Y208511D01*
X113616Y208582D01*
X113624Y208653D01*
X113613Y208704D01*
X113611Y208756D01*
X113587Y208824D01*
X113572Y208894D01*
X113545Y208938D01*
X113527Y208987D01*
X113482Y209043D01*
X113445Y209105D01*
X113406Y209139D01*
X113373Y209179D01*
X113313Y209218D01*
X113258Y209265D01*
X113210Y209284D01*
X113166Y209312D01*
X113097Y209330D01*
X113030Y209357D01*
X112959Y209365D01*
X112928Y209373D01*
X112904Y209371D01*
X112864Y209375D01*
X103968Y209375D01*
X103075Y210268D01*
X103075Y221532D01*
X103968Y222425D01*
X104736Y222425D01*
X104806Y222436D01*
X104878Y222438D01*
X104927Y222456D01*
X104978Y222464D01*
X105042Y222498D01*
X105109Y222523D01*
X105150Y222555D01*
X105196Y222580D01*
X105245Y222632D01*
X105301Y222676D01*
X105329Y222720D01*
X105365Y222758D01*
X105395Y222823D01*
X105434Y222883D01*
X105447Y222934D01*
X105469Y222981D01*
X105477Y223052D01*
X105494Y223122D01*
X105490Y223174D01*
X105496Y223225D01*
X105481Y223296D01*
X105475Y223367D01*
X105455Y223415D01*
X105444Y223466D01*
X105407Y223527D01*
X105379Y223593D01*
X105334Y223649D01*
X105317Y223677D01*
X105300Y223692D01*
X105274Y223724D01*
X104432Y224566D01*
X104358Y224619D01*
X104288Y224679D01*
X104258Y224691D01*
X104232Y224710D01*
X104145Y224737D01*
X104060Y224771D01*
X104019Y224775D01*
X103997Y224782D01*
X103965Y224781D01*
X103893Y224789D01*
X78987Y224789D01*
X78897Y224775D01*
X78806Y224767D01*
X78776Y224755D01*
X78744Y224750D01*
X78663Y224707D01*
X78579Y224671D01*
X78547Y224645D01*
X78526Y224634D01*
X78504Y224611D01*
X78448Y224566D01*
X77606Y223724D01*
X77564Y223666D01*
X77515Y223614D01*
X77493Y223567D01*
X77463Y223525D01*
X77442Y223456D01*
X77411Y223391D01*
X77406Y223339D01*
X77390Y223289D01*
X77392Y223218D01*
X77384Y223147D01*
X77395Y223096D01*
X77397Y223044D01*
X77421Y222976D01*
X77436Y222906D01*
X77463Y222861D01*
X77481Y222813D01*
X77526Y222757D01*
X77563Y222695D01*
X77602Y222661D01*
X77635Y222621D01*
X77695Y222582D01*
X77750Y222535D01*
X77798Y222516D01*
X77842Y222488D01*
X77911Y222470D01*
X77978Y222443D01*
X78049Y222435D01*
X78080Y222427D01*
X78104Y222429D01*
X78130Y222426D01*
X79025Y221532D01*
X79025Y210268D01*
X78132Y209375D01*
X73064Y209375D01*
X72994Y209364D01*
X72922Y209362D01*
X72873Y209344D01*
X72822Y209336D01*
X72758Y209302D01*
X72691Y209277D01*
X72650Y209245D01*
X72604Y209220D01*
X72555Y209168D01*
X72499Y209124D01*
X72471Y209080D01*
X72435Y209042D01*
X72405Y208977D01*
X72366Y208917D01*
X72353Y208866D01*
X72331Y208819D01*
X72323Y208748D01*
X72306Y208678D01*
X72310Y208626D01*
X72304Y208575D01*
X72319Y208504D01*
X72325Y208433D01*
X72345Y208385D01*
X72356Y208334D01*
X72393Y208273D01*
X72421Y208207D01*
X72466Y208151D01*
X72483Y208123D01*
X72500Y208108D01*
X72526Y208076D01*
X95212Y185390D01*
X96054Y184548D01*
X96128Y184495D01*
X96198Y184435D01*
X96228Y184423D01*
X96254Y184404D01*
X96341Y184377D01*
X96426Y184343D01*
X96467Y184339D01*
X96489Y184332D01*
X96521Y184333D01*
X96592Y184325D01*
X99232Y184325D01*
X100125Y183432D01*
X100125Y172168D01*
X99232Y171275D01*
X86968Y171275D01*
X86075Y172168D01*
X86075Y183432D01*
X86968Y184325D01*
X87972Y184325D01*
X88042Y184336D01*
X88114Y184338D01*
X88163Y184356D01*
X88214Y184364D01*
X88278Y184398D01*
X88345Y184423D01*
X88386Y184455D01*
X88432Y184480D01*
X88481Y184532D01*
X88537Y184576D01*
X88565Y184620D01*
X88601Y184658D01*
X88631Y184723D01*
X88670Y184783D01*
X88683Y184834D01*
X88705Y184881D01*
X88713Y184952D01*
X88730Y185022D01*
X88726Y185074D01*
X88732Y185125D01*
X88717Y185196D01*
X88711Y185267D01*
X88691Y185315D01*
X88680Y185366D01*
X88643Y185427D01*
X88615Y185493D01*
X88570Y185549D01*
X88553Y185577D01*
X88536Y185592D01*
X88510Y185624D01*
X70904Y203230D01*
X70830Y203283D01*
X70760Y203343D01*
X70730Y203355D01*
X70704Y203374D01*
X70617Y203401D01*
X70532Y203435D01*
X70491Y203439D01*
X70469Y203446D01*
X70437Y203445D01*
X70365Y203453D01*
X66109Y203453D01*
X61721Y207841D01*
X61721Y208614D01*
X61718Y208634D01*
X61720Y208653D01*
X61698Y208755D01*
X61682Y208857D01*
X61672Y208874D01*
X61668Y208894D01*
X61615Y208983D01*
X61566Y209074D01*
X61552Y209088D01*
X61542Y209105D01*
X61463Y209172D01*
X61388Y209244D01*
X61370Y209252D01*
X61355Y209265D01*
X61259Y209304D01*
X61165Y209347D01*
X61145Y209349D01*
X61127Y209357D01*
X60960Y209375D01*
X57912Y209375D01*
X57892Y209372D01*
X57873Y209374D01*
X57771Y209352D01*
X57669Y209336D01*
X57652Y209326D01*
X57632Y209322D01*
X57543Y209269D01*
X57452Y209220D01*
X57438Y209206D01*
X57421Y209196D01*
X57354Y209117D01*
X57282Y209042D01*
X57274Y209024D01*
X57261Y209009D01*
X57222Y208913D01*
X57179Y208819D01*
X57177Y208799D01*
X57169Y208781D01*
X57151Y208614D01*
X57151Y202431D01*
X57165Y202340D01*
X57173Y202250D01*
X57185Y202220D01*
X57190Y202188D01*
X57233Y202107D01*
X57269Y202023D01*
X57295Y201991D01*
X57306Y201970D01*
X57329Y201948D01*
X57374Y201892D01*
X73876Y185390D01*
X74718Y184548D01*
X74792Y184495D01*
X74862Y184435D01*
X74892Y184423D01*
X74918Y184404D01*
X75005Y184377D01*
X75090Y184343D01*
X75131Y184339D01*
X75153Y184332D01*
X75185Y184333D01*
X75256Y184325D01*
X78132Y184325D01*
X79025Y183432D01*
X79025Y172168D01*
X78132Y171275D01*
X74241Y171275D01*
X74150Y171261D01*
X74060Y171253D01*
X74030Y171241D01*
X73998Y171236D01*
X73917Y171193D01*
X73833Y171157D01*
X73801Y171131D01*
X73780Y171120D01*
X73758Y171097D01*
X73702Y171052D01*
X72352Y169702D01*
X72352Y169701D01*
X72351Y169701D01*
X72310Y169643D01*
X72261Y169592D01*
X72239Y169545D01*
X72209Y169503D01*
X72208Y169502D01*
X72208Y169501D01*
X72187Y169433D01*
X72157Y169369D01*
X72152Y169317D01*
X72136Y169267D01*
X72136Y169265D01*
X72138Y169195D01*
X72130Y169125D01*
X72141Y169073D01*
X72143Y169022D01*
X72143Y169021D01*
X72143Y169019D01*
X72167Y168953D01*
X72182Y168884D01*
X72209Y168839D01*
X72227Y168791D01*
X72228Y168790D01*
X72228Y168789D01*
X72272Y168734D01*
X72309Y168673D01*
X72348Y168639D01*
X72381Y168599D01*
X72382Y168598D01*
X72382Y168597D01*
X72442Y168559D01*
X72496Y168513D01*
X72544Y168494D01*
X72588Y168466D01*
X72589Y168465D01*
X72590Y168465D01*
X72658Y168448D01*
X72724Y168421D01*
X72795Y168413D01*
X72826Y168405D01*
X72827Y168406D01*
X72828Y168405D01*
X72851Y168407D01*
X72890Y168403D01*
X106680Y168403D01*
X106700Y168406D01*
X106719Y168404D01*
X106821Y168426D01*
X106923Y168442D01*
X106940Y168452D01*
X106960Y168456D01*
X107049Y168509D01*
X107140Y168558D01*
X107154Y168572D01*
X107171Y168582D01*
X107238Y168661D01*
X107310Y168736D01*
X107318Y168754D01*
X107331Y168769D01*
X107370Y168865D01*
X107413Y168959D01*
X107415Y168979D01*
X107423Y168997D01*
X107441Y169164D01*
X107441Y170514D01*
X107438Y170534D01*
X107440Y170553D01*
X107418Y170655D01*
X107402Y170757D01*
X107392Y170774D01*
X107388Y170794D01*
X107335Y170883D01*
X107286Y170974D01*
X107272Y170988D01*
X107262Y171005D01*
X107183Y171072D01*
X107108Y171144D01*
X107090Y171152D01*
X107075Y171165D01*
X106979Y171204D01*
X106885Y171247D01*
X106865Y171249D01*
X106847Y171257D01*
X106680Y171275D01*
X103968Y171275D01*
X103075Y172168D01*
X103075Y183432D01*
X103968Y184325D01*
X116232Y184325D01*
X117125Y183432D01*
X117125Y172168D01*
X116232Y171275D01*
X112776Y171275D01*
X112756Y171272D01*
X112737Y171274D01*
X112635Y171252D01*
X112533Y171236D01*
X112516Y171226D01*
X112496Y171222D01*
X112407Y171169D01*
X112316Y171120D01*
X112302Y171106D01*
X112285Y171096D01*
X112218Y171017D01*
X112146Y170942D01*
X112138Y170924D01*
X112125Y170909D01*
X112086Y170813D01*
X112043Y170719D01*
X112041Y170699D01*
X112033Y170681D01*
X112015Y170514D01*
X112015Y162807D01*
X112029Y162716D01*
X112037Y162626D01*
X112049Y162596D01*
X112054Y162564D01*
X112097Y162483D01*
X112133Y162399D01*
X112159Y162367D01*
X112170Y162346D01*
X112193Y162324D01*
X112238Y162268D01*
X119858Y154648D01*
X119874Y154637D01*
X119886Y154621D01*
X119974Y154565D01*
X120057Y154505D01*
X120077Y154499D01*
X120093Y154488D01*
X120194Y154463D01*
X120293Y154432D01*
X120313Y154433D01*
X120332Y154428D01*
X120435Y154436D01*
X120538Y154439D01*
X120557Y154446D01*
X120577Y154447D01*
X120672Y154488D01*
X120769Y154523D01*
X120785Y154536D01*
X120803Y154543D01*
X120934Y154648D01*
X120973Y154687D01*
X126753Y154687D01*
X126844Y154701D01*
X126934Y154709D01*
X126964Y154721D01*
X126996Y154726D01*
X127077Y154769D01*
X127161Y154805D01*
X127193Y154831D01*
X127214Y154842D01*
X127236Y154865D01*
X127292Y154910D01*
X142358Y169976D01*
X142400Y170034D01*
X142449Y170086D01*
X142471Y170133D01*
X142501Y170175D01*
X142522Y170244D01*
X142553Y170309D01*
X142558Y170361D01*
X142574Y170411D01*
X142572Y170482D01*
X142580Y170553D01*
X142569Y170604D01*
X142567Y170656D01*
X142543Y170724D01*
X142528Y170794D01*
X142501Y170839D01*
X142483Y170887D01*
X142438Y170943D01*
X142401Y171005D01*
X142362Y171039D01*
X142329Y171079D01*
X142269Y171118D01*
X142214Y171165D01*
X142166Y171184D01*
X142147Y171196D01*
X141175Y172168D01*
X141175Y183432D01*
X142068Y184325D01*
X142836Y184325D01*
X142906Y184336D01*
X142978Y184338D01*
X143027Y184356D01*
X143078Y184364D01*
X143142Y184398D01*
X143209Y184423D01*
X143250Y184455D01*
X143296Y184480D01*
X143345Y184532D01*
X143401Y184576D01*
X143429Y184620D01*
X143465Y184658D01*
X143495Y184723D01*
X143534Y184783D01*
X143547Y184834D01*
X143569Y184881D01*
X143577Y184952D01*
X143594Y185022D01*
X143590Y185074D01*
X143596Y185125D01*
X143581Y185196D01*
X143575Y185267D01*
X143555Y185315D01*
X143544Y185366D01*
X143507Y185427D01*
X143479Y185493D01*
X143434Y185549D01*
X143417Y185577D01*
X143400Y185592D01*
X143374Y185624D01*
X128777Y200221D01*
X128777Y208614D01*
X128774Y208634D01*
X128776Y208653D01*
X128754Y208755D01*
X128738Y208857D01*
X128728Y208874D01*
X128724Y208894D01*
X128671Y208983D01*
X128622Y209074D01*
X128608Y209088D01*
X128598Y209105D01*
X128519Y209172D01*
X128444Y209244D01*
X128426Y209252D01*
X128411Y209265D01*
X128315Y209304D01*
X128221Y209347D01*
X128201Y209349D01*
X128183Y209357D01*
X128016Y209375D01*
X125068Y209375D01*
X124175Y210268D01*
X124175Y221532D01*
X125068Y222425D01*
X137332Y222425D01*
X138225Y221532D01*
X138225Y210268D01*
X137332Y209375D01*
X134112Y209375D01*
X134092Y209372D01*
X134073Y209374D01*
X133971Y209352D01*
X133869Y209336D01*
X133852Y209326D01*
X133832Y209322D01*
X133743Y209269D01*
X133652Y209220D01*
X133638Y209206D01*
X133621Y209196D01*
X133554Y209117D01*
X133482Y209042D01*
X133474Y209024D01*
X133461Y209009D01*
X133422Y208913D01*
X133379Y208819D01*
X133377Y208799D01*
X133369Y208781D01*
X133351Y208614D01*
X133351Y202431D01*
X133365Y202340D01*
X133373Y202250D01*
X133385Y202220D01*
X133390Y202188D01*
X133433Y202107D01*
X133469Y202023D01*
X133495Y201991D01*
X133506Y201970D01*
X133529Y201948D01*
X133574Y201892D01*
X150076Y185390D01*
X150918Y184548D01*
X150992Y184495D01*
X151062Y184435D01*
X151092Y184423D01*
X151118Y184404D01*
X151205Y184377D01*
X151290Y184343D01*
X151331Y184339D01*
X151353Y184332D01*
X151385Y184333D01*
X151456Y184325D01*
X154332Y184325D01*
X155225Y183432D01*
X155225Y172168D01*
X154332Y171275D01*
X150440Y171275D01*
X150350Y171261D01*
X150259Y171253D01*
X150230Y171241D01*
X150198Y171236D01*
X150117Y171193D01*
X150033Y171157D01*
X150001Y171131D01*
X149980Y171120D01*
X149958Y171097D01*
X149902Y171052D01*
X130526Y151676D01*
X128963Y150113D01*
X124968Y150113D01*
X124948Y150110D01*
X124929Y150112D01*
X124827Y150090D01*
X124725Y150074D01*
X124708Y150064D01*
X124688Y150060D01*
X124599Y150007D01*
X124508Y149958D01*
X124494Y149944D01*
X124477Y149934D01*
X124410Y149855D01*
X124338Y149780D01*
X124330Y149762D01*
X124317Y149747D01*
X124278Y149651D01*
X124235Y149557D01*
X124233Y149537D01*
X124225Y149519D01*
X124207Y149352D01*
X124207Y148736D01*
X124210Y148716D01*
X124208Y148697D01*
X124230Y148595D01*
X124246Y148493D01*
X124256Y148476D01*
X124260Y148456D01*
X124313Y148367D01*
X124362Y148276D01*
X124376Y148262D01*
X124386Y148245D01*
X124465Y148178D01*
X124540Y148106D01*
X124558Y148098D01*
X124573Y148085D01*
X124669Y148046D01*
X124763Y148003D01*
X124783Y148001D01*
X124801Y147993D01*
X124968Y147975D01*
X125632Y147975D01*
X126462Y147145D01*
X126478Y147133D01*
X126490Y147117D01*
X126578Y147061D01*
X126661Y147001D01*
X126680Y146995D01*
X126697Y146984D01*
X126798Y146959D01*
X126897Y146929D01*
X126916Y146929D01*
X126936Y146924D01*
X127039Y146932D01*
X127142Y146935D01*
X127161Y146942D01*
X127181Y146943D01*
X127276Y146984D01*
X127373Y147019D01*
X127389Y147032D01*
X127407Y147040D01*
X127538Y147145D01*
X128368Y147975D01*
X135632Y147975D01*
X136462Y147145D01*
X136478Y147133D01*
X136490Y147117D01*
X136578Y147061D01*
X136661Y147001D01*
X136680Y146995D01*
X136697Y146984D01*
X136798Y146959D01*
X136897Y146929D01*
X136916Y146929D01*
X136936Y146924D01*
X137039Y146932D01*
X137142Y146935D01*
X137161Y146942D01*
X137181Y146943D01*
X137276Y146984D01*
X137373Y147019D01*
X137389Y147032D01*
X137407Y147040D01*
X137538Y147145D01*
X138368Y147975D01*
X145632Y147975D01*
X146525Y147082D01*
X146525Y132318D01*
X145632Y131425D01*
X144780Y131425D01*
X144760Y131422D01*
X144741Y131424D01*
X144639Y131402D01*
X144537Y131386D01*
X144520Y131376D01*
X144500Y131372D01*
X144411Y131319D01*
X144320Y131270D01*
X144306Y131256D01*
X144289Y131246D01*
X144222Y131167D01*
X144150Y131092D01*
X144142Y131074D01*
X144129Y131059D01*
X144090Y130963D01*
X144047Y130869D01*
X144045Y130849D01*
X144037Y130831D01*
X144019Y130664D01*
X144019Y130501D01*
X144033Y130411D01*
X144041Y130320D01*
X144053Y130291D01*
X144058Y130259D01*
X144101Y130178D01*
X144137Y130094D01*
X144163Y130062D01*
X144174Y130041D01*
X144197Y130019D01*
X144242Y129963D01*
X145515Y128690D01*
X145515Y127726D01*
X145526Y127656D01*
X145528Y127584D01*
X145546Y127535D01*
X145554Y127484D01*
X145588Y127420D01*
X145613Y127353D01*
X145645Y127312D01*
X145670Y127266D01*
X145722Y127217D01*
X145766Y127161D01*
X145810Y127133D01*
X145848Y127097D01*
X145913Y127067D01*
X145973Y127028D01*
X146024Y127015D01*
X146071Y126993D01*
X146142Y126985D01*
X146212Y126968D01*
X146264Y126972D01*
X146315Y126966D01*
X146386Y126981D01*
G37*
G36*
X96336Y61709D02*
X96336Y61709D01*
X96426Y61717D01*
X96441Y61723D01*
X98538Y61723D01*
X98558Y61726D01*
X98577Y61724D01*
X98679Y61746D01*
X98781Y61762D01*
X98798Y61772D01*
X98818Y61776D01*
X98907Y61829D01*
X98998Y61878D01*
X99012Y61892D01*
X99029Y61902D01*
X99096Y61981D01*
X99168Y62056D01*
X99176Y62074D01*
X99189Y62089D01*
X99228Y62185D01*
X99271Y62279D01*
X99273Y62299D01*
X99281Y62317D01*
X99299Y62484D01*
X99299Y63300D01*
X99300Y63301D01*
X105156Y63301D01*
X105176Y63304D01*
X105195Y63302D01*
X105297Y63324D01*
X105399Y63340D01*
X105416Y63350D01*
X105436Y63354D01*
X105525Y63407D01*
X105616Y63456D01*
X105630Y63470D01*
X105647Y63480D01*
X105714Y63559D01*
X105786Y63634D01*
X105794Y63652D01*
X105807Y63667D01*
X105846Y63763D01*
X105889Y63857D01*
X105891Y63877D01*
X105899Y63895D01*
X105917Y64062D01*
X105917Y82859D01*
X105903Y82949D01*
X105895Y83040D01*
X105883Y83069D01*
X105878Y83101D01*
X105835Y83182D01*
X105799Y83266D01*
X105773Y83298D01*
X105762Y83319D01*
X105739Y83341D01*
X105694Y83397D01*
X102897Y86194D01*
X102897Y90664D01*
X102894Y90684D01*
X102896Y90703D01*
X102874Y90805D01*
X102858Y90907D01*
X102848Y90924D01*
X102844Y90944D01*
X102791Y91033D01*
X102742Y91124D01*
X102728Y91138D01*
X102718Y91155D01*
X102639Y91222D01*
X102564Y91294D01*
X102546Y91302D01*
X102531Y91315D01*
X102435Y91354D01*
X102341Y91397D01*
X102321Y91399D01*
X102303Y91407D01*
X102136Y91425D01*
X92368Y91425D01*
X91475Y92318D01*
X91475Y113582D01*
X91683Y113790D01*
X91725Y113848D01*
X91775Y113900D01*
X91797Y113947D01*
X91827Y113989D01*
X91848Y114058D01*
X91878Y114123D01*
X91884Y114175D01*
X91899Y114225D01*
X91897Y114296D01*
X91905Y114367D01*
X91894Y114418D01*
X91893Y114470D01*
X91868Y114538D01*
X91853Y114608D01*
X91826Y114653D01*
X91809Y114701D01*
X91764Y114757D01*
X91727Y114819D01*
X91687Y114853D01*
X91655Y114893D01*
X91595Y114932D01*
X91540Y114979D01*
X91492Y114998D01*
X91448Y115026D01*
X91379Y115044D01*
X91312Y115071D01*
X91241Y115079D01*
X91209Y115087D01*
X91186Y115085D01*
X91145Y115089D01*
X90766Y115089D01*
X87657Y118198D01*
X87657Y122594D01*
X90766Y125703D01*
X94721Y125703D01*
X94812Y125717D01*
X94902Y125725D01*
X94932Y125737D01*
X94964Y125742D01*
X95045Y125785D01*
X95129Y125821D01*
X95161Y125847D01*
X95182Y125858D01*
X95204Y125881D01*
X95260Y125926D01*
X107252Y137918D01*
X107305Y137992D01*
X107365Y138062D01*
X107377Y138092D01*
X107396Y138118D01*
X107423Y138205D01*
X107457Y138290D01*
X107461Y138331D01*
X107468Y138353D01*
X107467Y138385D01*
X107475Y138457D01*
X107475Y147082D01*
X108368Y147975D01*
X115632Y147975D01*
X116462Y147145D01*
X116478Y147133D01*
X116490Y147117D01*
X116578Y147061D01*
X116661Y147001D01*
X116680Y146995D01*
X116697Y146984D01*
X116798Y146959D01*
X116897Y146929D01*
X116916Y146929D01*
X116936Y146924D01*
X117039Y146932D01*
X117142Y146935D01*
X117161Y146942D01*
X117181Y146943D01*
X117276Y146984D01*
X117373Y147019D01*
X117389Y147032D01*
X117407Y147040D01*
X117538Y147145D01*
X118390Y147996D01*
X118417Y148006D01*
X118468Y148014D01*
X118532Y148048D01*
X118599Y148073D01*
X118640Y148105D01*
X118686Y148130D01*
X118735Y148182D01*
X118791Y148226D01*
X118819Y148270D01*
X118855Y148308D01*
X118885Y148373D01*
X118924Y148433D01*
X118937Y148484D01*
X118959Y148531D01*
X118967Y148602D01*
X118984Y148672D01*
X118980Y148724D01*
X118986Y148775D01*
X118971Y148846D01*
X118965Y148917D01*
X118945Y148965D01*
X118934Y149016D01*
X118897Y149077D01*
X118869Y149143D01*
X118824Y149199D01*
X118807Y149227D01*
X118790Y149242D01*
X118764Y149274D01*
X107441Y160597D01*
X107441Y163068D01*
X107438Y163088D01*
X107440Y163107D01*
X107418Y163209D01*
X107402Y163311D01*
X107392Y163328D01*
X107388Y163348D01*
X107335Y163437D01*
X107286Y163528D01*
X107272Y163542D01*
X107262Y163559D01*
X107183Y163626D01*
X107108Y163698D01*
X107090Y163706D01*
X107075Y163719D01*
X106979Y163758D01*
X106885Y163801D01*
X106865Y163803D01*
X106847Y163811D01*
X106680Y163829D01*
X70104Y163829D01*
X70084Y163826D01*
X70065Y163828D01*
X69963Y163806D01*
X69861Y163790D01*
X69844Y163780D01*
X69824Y163776D01*
X69735Y163723D01*
X69644Y163674D01*
X69630Y163660D01*
X69613Y163650D01*
X69546Y163571D01*
X69474Y163496D01*
X69466Y163478D01*
X69453Y163463D01*
X69414Y163367D01*
X69371Y163273D01*
X69369Y163253D01*
X69361Y163235D01*
X69343Y163068D01*
X69343Y131086D01*
X69346Y131066D01*
X69344Y131047D01*
X69366Y130945D01*
X69382Y130843D01*
X69392Y130826D01*
X69396Y130806D01*
X69449Y130717D01*
X69498Y130626D01*
X69512Y130612D01*
X69522Y130595D01*
X69601Y130528D01*
X69676Y130456D01*
X69694Y130448D01*
X69709Y130435D01*
X69805Y130396D01*
X69899Y130353D01*
X69904Y130352D01*
X70825Y129432D01*
X70825Y126492D01*
X70828Y126472D01*
X70826Y126453D01*
X70848Y126351D01*
X70864Y126249D01*
X70874Y126232D01*
X70878Y126212D01*
X70931Y126123D01*
X70980Y126032D01*
X70994Y126018D01*
X71004Y126001D01*
X71083Y125934D01*
X71158Y125862D01*
X71176Y125854D01*
X71191Y125841D01*
X71287Y125802D01*
X71381Y125759D01*
X71401Y125757D01*
X71419Y125749D01*
X71586Y125731D01*
X80195Y125731D01*
X86107Y119819D01*
X86107Y105733D01*
X71051Y90677D01*
X70104Y90677D01*
X70084Y90674D01*
X70065Y90676D01*
X69963Y90654D01*
X69861Y90638D01*
X69844Y90628D01*
X69824Y90624D01*
X69735Y90571D01*
X69644Y90522D01*
X69630Y90508D01*
X69613Y90498D01*
X69546Y90419D01*
X69474Y90344D01*
X69466Y90326D01*
X69453Y90311D01*
X69414Y90215D01*
X69371Y90121D01*
X69369Y90101D01*
X69361Y90083D01*
X69343Y89916D01*
X69343Y88131D01*
X69357Y88040D01*
X69365Y87950D01*
X69377Y87920D01*
X69382Y87888D01*
X69425Y87807D01*
X69461Y87723D01*
X69487Y87691D01*
X69498Y87670D01*
X69521Y87648D01*
X69566Y87592D01*
X95240Y61918D01*
X95314Y61865D01*
X95384Y61805D01*
X95414Y61793D01*
X95440Y61774D01*
X95527Y61747D01*
X95612Y61713D01*
X95653Y61709D01*
X95675Y61702D01*
X95707Y61703D01*
X95779Y61695D01*
X96245Y61695D01*
X96336Y61709D01*
G37*
G36*
X30034Y118328D02*
X30034Y118328D01*
X30053Y118326D01*
X30155Y118348D01*
X30257Y118364D01*
X30274Y118374D01*
X30294Y118378D01*
X30383Y118431D01*
X30474Y118480D01*
X30488Y118494D01*
X30505Y118504D01*
X30572Y118583D01*
X30644Y118658D01*
X30652Y118676D01*
X30665Y118691D01*
X30704Y118787D01*
X30747Y118881D01*
X30749Y118901D01*
X30757Y118919D01*
X30775Y119086D01*
X30775Y129432D01*
X31668Y130325D01*
X37932Y130325D01*
X38262Y129995D01*
X38278Y129983D01*
X38290Y129967D01*
X38377Y129911D01*
X38461Y129851D01*
X38480Y129845D01*
X38497Y129834D01*
X38598Y129809D01*
X38697Y129779D01*
X38716Y129779D01*
X38736Y129774D01*
X38839Y129782D01*
X38942Y129785D01*
X38961Y129792D01*
X38981Y129793D01*
X39076Y129834D01*
X39173Y129869D01*
X39189Y129882D01*
X39207Y129890D01*
X39338Y129995D01*
X39668Y130325D01*
X45932Y130325D01*
X46262Y129995D01*
X46278Y129983D01*
X46290Y129967D01*
X46377Y129911D01*
X46461Y129851D01*
X46480Y129845D01*
X46497Y129834D01*
X46598Y129809D01*
X46697Y129779D01*
X46716Y129779D01*
X46736Y129774D01*
X46839Y129782D01*
X46942Y129785D01*
X46961Y129792D01*
X46981Y129793D01*
X47076Y129834D01*
X47173Y129869D01*
X47189Y129882D01*
X47207Y129890D01*
X47338Y129995D01*
X47782Y130439D01*
X47835Y130513D01*
X47895Y130582D01*
X47907Y130612D01*
X47926Y130638D01*
X47953Y130725D01*
X47987Y130810D01*
X47991Y130851D01*
X47998Y130873D01*
X47997Y130906D01*
X48005Y130977D01*
X48005Y161805D01*
X47991Y161896D01*
X47983Y161986D01*
X47971Y162016D01*
X47966Y162048D01*
X47923Y162129D01*
X47887Y162213D01*
X47861Y162245D01*
X47850Y162266D01*
X47827Y162288D01*
X47782Y162344D01*
X40385Y169741D01*
X40385Y215146D01*
X40374Y215216D01*
X40372Y215288D01*
X40354Y215337D01*
X40346Y215388D01*
X40312Y215452D01*
X40287Y215519D01*
X40255Y215560D01*
X40230Y215606D01*
X40178Y215655D01*
X40134Y215711D01*
X40090Y215739D01*
X40052Y215775D01*
X39987Y215805D01*
X39927Y215844D01*
X39876Y215857D01*
X39829Y215879D01*
X39758Y215887D01*
X39688Y215904D01*
X39636Y215900D01*
X39585Y215906D01*
X39514Y215891D01*
X39443Y215885D01*
X39395Y215865D01*
X39344Y215854D01*
X39283Y215817D01*
X39217Y215789D01*
X39161Y215744D01*
X39133Y215727D01*
X39118Y215710D01*
X39086Y215684D01*
X28418Y205016D01*
X28365Y204942D01*
X28305Y204872D01*
X28293Y204842D01*
X28274Y204816D01*
X28247Y204729D01*
X28213Y204644D01*
X28209Y204603D01*
X28202Y204581D01*
X28203Y204549D01*
X28195Y204477D01*
X28195Y119086D01*
X28198Y119066D01*
X28196Y119047D01*
X28218Y118945D01*
X28234Y118843D01*
X28244Y118826D01*
X28248Y118806D01*
X28301Y118717D01*
X28350Y118626D01*
X28364Y118612D01*
X28374Y118595D01*
X28453Y118528D01*
X28528Y118456D01*
X28546Y118448D01*
X28561Y118435D01*
X28657Y118396D01*
X28751Y118353D01*
X28771Y118351D01*
X28789Y118343D01*
X28956Y118325D01*
X30014Y118325D01*
X30034Y118328D01*
G37*
G36*
X110052Y93713D02*
X110052Y93713D01*
X110142Y93721D01*
X110172Y93733D01*
X110204Y93738D01*
X110285Y93781D01*
X110369Y93817D01*
X110401Y93843D01*
X110422Y93854D01*
X110444Y93877D01*
X110500Y93922D01*
X130078Y113500D01*
X130131Y113574D01*
X130191Y113644D01*
X130203Y113674D01*
X130222Y113700D01*
X130249Y113787D01*
X130283Y113872D01*
X130287Y113913D01*
X130294Y113935D01*
X130293Y113967D01*
X130301Y114039D01*
X130301Y130664D01*
X130298Y130684D01*
X130300Y130703D01*
X130278Y130805D01*
X130262Y130907D01*
X130252Y130924D01*
X130248Y130944D01*
X130195Y131033D01*
X130146Y131124D01*
X130132Y131138D01*
X130122Y131155D01*
X130043Y131222D01*
X129968Y131294D01*
X129950Y131302D01*
X129935Y131315D01*
X129839Y131354D01*
X129745Y131397D01*
X129725Y131399D01*
X129707Y131407D01*
X129540Y131425D01*
X128368Y131425D01*
X127538Y132255D01*
X127522Y132267D01*
X127510Y132283D01*
X127422Y132339D01*
X127339Y132399D01*
X127320Y132405D01*
X127303Y132416D01*
X127202Y132441D01*
X127103Y132471D01*
X127084Y132471D01*
X127064Y132476D01*
X126961Y132468D01*
X126858Y132465D01*
X126839Y132458D01*
X126819Y132457D01*
X126724Y132416D01*
X126627Y132381D01*
X126611Y132368D01*
X126593Y132360D01*
X126462Y132255D01*
X125632Y131425D01*
X118368Y131425D01*
X117538Y132255D01*
X117522Y132267D01*
X117510Y132283D01*
X117422Y132339D01*
X117339Y132399D01*
X117320Y132405D01*
X117303Y132416D01*
X117202Y132441D01*
X117103Y132471D01*
X117084Y132471D01*
X117064Y132476D01*
X116961Y132468D01*
X116858Y132465D01*
X116839Y132458D01*
X116819Y132457D01*
X116724Y132416D01*
X116627Y132381D01*
X116611Y132368D01*
X116593Y132360D01*
X116462Y132255D01*
X115632Y131425D01*
X108368Y131425D01*
X108336Y131458D01*
X108320Y131469D01*
X108307Y131485D01*
X108220Y131541D01*
X108136Y131601D01*
X108117Y131607D01*
X108101Y131618D01*
X108000Y131643D01*
X107901Y131674D01*
X107881Y131673D01*
X107862Y131678D01*
X107759Y131670D01*
X107655Y131667D01*
X107637Y131660D01*
X107617Y131659D01*
X107522Y131618D01*
X107424Y131583D01*
X107409Y131570D01*
X107391Y131562D01*
X107260Y131458D01*
X98494Y122692D01*
X98441Y122618D01*
X98381Y122548D01*
X98369Y122518D01*
X98350Y122492D01*
X98323Y122405D01*
X98289Y122320D01*
X98285Y122279D01*
X98278Y122257D01*
X98279Y122225D01*
X98271Y122153D01*
X98271Y118198D01*
X95847Y115774D01*
X95805Y115716D01*
X95756Y115664D01*
X95734Y115617D01*
X95704Y115575D01*
X95682Y115506D01*
X95652Y115441D01*
X95647Y115389D01*
X95631Y115339D01*
X95633Y115268D01*
X95625Y115197D01*
X95636Y115146D01*
X95638Y115094D01*
X95662Y115026D01*
X95677Y114956D01*
X95704Y114911D01*
X95722Y114863D01*
X95767Y114807D01*
X95804Y114745D01*
X95843Y114711D01*
X95876Y114671D01*
X95936Y114632D01*
X95991Y114585D01*
X96039Y114566D01*
X96083Y114538D01*
X96152Y114520D01*
X96219Y114493D01*
X96290Y114485D01*
X96321Y114477D01*
X96344Y114479D01*
X96385Y114475D01*
X105632Y114475D01*
X106525Y113582D01*
X106525Y94460D01*
X106528Y94440D01*
X106526Y94421D01*
X106548Y94319D01*
X106564Y94217D01*
X106574Y94200D01*
X106578Y94180D01*
X106631Y94091D01*
X106680Y94000D01*
X106694Y93986D01*
X106704Y93969D01*
X106783Y93902D01*
X106858Y93830D01*
X106876Y93822D01*
X106891Y93809D01*
X106987Y93770D01*
X107081Y93727D01*
X107101Y93725D01*
X107119Y93717D01*
X107286Y93699D01*
X109961Y93699D01*
X110052Y93713D01*
G37*
G36*
X111833Y63538D02*
X111833Y63538D01*
X111937Y63541D01*
X111955Y63548D01*
X111975Y63549D01*
X112070Y63590D01*
X112168Y63625D01*
X112183Y63638D01*
X112201Y63646D01*
X112332Y63750D01*
X137698Y89116D01*
X137751Y89190D01*
X137811Y89260D01*
X137823Y89290D01*
X137842Y89316D01*
X137869Y89403D01*
X137903Y89488D01*
X137907Y89529D01*
X137914Y89551D01*
X137913Y89583D01*
X137921Y89655D01*
X137921Y120959D01*
X137907Y121049D01*
X137899Y121140D01*
X137887Y121169D01*
X137882Y121201D01*
X137839Y121282D01*
X137803Y121366D01*
X137777Y121398D01*
X137766Y121419D01*
X137743Y121441D01*
X137698Y121497D01*
X136174Y123021D01*
X136116Y123063D01*
X136064Y123112D01*
X136017Y123134D01*
X135975Y123164D01*
X135906Y123186D01*
X135841Y123216D01*
X135789Y123221D01*
X135739Y123237D01*
X135668Y123235D01*
X135597Y123243D01*
X135546Y123232D01*
X135494Y123230D01*
X135426Y123206D01*
X135356Y123191D01*
X135311Y123164D01*
X135263Y123146D01*
X135207Y123101D01*
X135145Y123064D01*
X135111Y123025D01*
X135071Y122992D01*
X135032Y122932D01*
X134985Y122877D01*
X134966Y122829D01*
X134938Y122785D01*
X134920Y122716D01*
X134893Y122649D01*
X134885Y122578D01*
X134877Y122547D01*
X134879Y122524D01*
X134875Y122483D01*
X134875Y111829D01*
X113734Y90688D01*
X113681Y90614D01*
X113621Y90544D01*
X113609Y90514D01*
X113590Y90488D01*
X113563Y90401D01*
X113529Y90316D01*
X113525Y90275D01*
X113518Y90253D01*
X113519Y90221D01*
X113511Y90149D01*
X113511Y86194D01*
X110714Y83397D01*
X110661Y83323D01*
X110601Y83253D01*
X110589Y83223D01*
X110570Y83197D01*
X110543Y83110D01*
X110509Y83025D01*
X110505Y82984D01*
X110498Y82962D01*
X110499Y82930D01*
X110491Y82859D01*
X110491Y64586D01*
X110494Y64566D01*
X110492Y64547D01*
X110514Y64445D01*
X110530Y64343D01*
X110540Y64326D01*
X110544Y64306D01*
X110597Y64217D01*
X110646Y64126D01*
X110660Y64112D01*
X110670Y64095D01*
X110749Y64028D01*
X110824Y63956D01*
X110842Y63948D01*
X110857Y63935D01*
X110953Y63896D01*
X111047Y63853D01*
X111067Y63851D01*
X111085Y63843D01*
X111173Y63834D01*
X111256Y63750D01*
X111272Y63739D01*
X111285Y63723D01*
X111372Y63667D01*
X111456Y63607D01*
X111475Y63601D01*
X111491Y63590D01*
X111592Y63565D01*
X111691Y63534D01*
X111711Y63535D01*
X111730Y63530D01*
X111833Y63538D01*
G37*
G36*
X53951Y130336D02*
X53951Y130336D01*
X54023Y130338D01*
X54072Y130356D01*
X54123Y130364D01*
X54187Y130398D01*
X54254Y130423D01*
X54295Y130455D01*
X54341Y130480D01*
X54390Y130532D01*
X54446Y130576D01*
X54474Y130620D01*
X54510Y130658D01*
X54540Y130723D01*
X54579Y130783D01*
X54592Y130834D01*
X54614Y130881D01*
X54622Y130952D01*
X54639Y131022D01*
X54635Y131074D01*
X54641Y131125D01*
X54626Y131196D01*
X54620Y131267D01*
X54600Y131315D01*
X54589Y131366D01*
X54552Y131427D01*
X54524Y131493D01*
X54479Y131549D01*
X54462Y131577D01*
X54445Y131592D01*
X54419Y131624D01*
X54129Y131914D01*
X54129Y136310D01*
X56926Y139107D01*
X56979Y139181D01*
X57039Y139251D01*
X57051Y139281D01*
X57070Y139307D01*
X57097Y139394D01*
X57131Y139479D01*
X57135Y139520D01*
X57142Y139542D01*
X57141Y139574D01*
X57149Y139645D01*
X57149Y166377D01*
X57135Y166468D01*
X57127Y166558D01*
X57115Y166588D01*
X57110Y166620D01*
X57067Y166701D01*
X57031Y166785D01*
X57005Y166817D01*
X56994Y166838D01*
X56971Y166860D01*
X56926Y166916D01*
X52790Y171052D01*
X52716Y171105D01*
X52646Y171165D01*
X52616Y171177D01*
X52590Y171196D01*
X52503Y171223D01*
X52418Y171257D01*
X52377Y171261D01*
X52355Y171268D01*
X52323Y171267D01*
X52251Y171275D01*
X48868Y171275D01*
X47975Y172168D01*
X47975Y183432D01*
X48868Y184325D01*
X61132Y184325D01*
X62025Y183432D01*
X62025Y172168D01*
X61132Y171275D01*
X60872Y171275D01*
X60802Y171264D01*
X60730Y171262D01*
X60681Y171244D01*
X60630Y171236D01*
X60566Y171202D01*
X60499Y171177D01*
X60458Y171145D01*
X60412Y171120D01*
X60363Y171068D01*
X60307Y171024D01*
X60279Y170980D01*
X60243Y170942D01*
X60213Y170877D01*
X60174Y170817D01*
X60161Y170766D01*
X60139Y170719D01*
X60131Y170648D01*
X60114Y170578D01*
X60118Y170526D01*
X60112Y170475D01*
X60127Y170404D01*
X60133Y170333D01*
X60153Y170285D01*
X60164Y170234D01*
X60201Y170173D01*
X60229Y170107D01*
X60274Y170051D01*
X60291Y170023D01*
X60308Y170008D01*
X60334Y169976D01*
X61723Y168587D01*
X61723Y139645D01*
X61737Y139555D01*
X61745Y139464D01*
X61757Y139435D01*
X61762Y139403D01*
X61805Y139322D01*
X61841Y139238D01*
X61867Y139206D01*
X61878Y139185D01*
X61901Y139163D01*
X61946Y139107D01*
X63470Y137583D01*
X63528Y137541D01*
X63580Y137492D01*
X63627Y137470D01*
X63669Y137440D01*
X63738Y137418D01*
X63803Y137388D01*
X63855Y137383D01*
X63905Y137367D01*
X63976Y137369D01*
X64047Y137361D01*
X64098Y137372D01*
X64150Y137374D01*
X64218Y137398D01*
X64288Y137413D01*
X64333Y137440D01*
X64381Y137458D01*
X64437Y137503D01*
X64499Y137540D01*
X64533Y137579D01*
X64573Y137612D01*
X64612Y137672D01*
X64659Y137727D01*
X64678Y137775D01*
X64706Y137819D01*
X64724Y137888D01*
X64751Y137955D01*
X64759Y138026D01*
X64767Y138057D01*
X64765Y138080D01*
X64769Y138121D01*
X64769Y168587D01*
X66158Y169976D01*
X66200Y170034D01*
X66249Y170086D01*
X66271Y170133D01*
X66301Y170175D01*
X66322Y170244D01*
X66353Y170309D01*
X66358Y170361D01*
X66374Y170411D01*
X66372Y170482D01*
X66380Y170553D01*
X66369Y170604D01*
X66367Y170656D01*
X66343Y170724D01*
X66328Y170794D01*
X66301Y170839D01*
X66283Y170887D01*
X66238Y170943D01*
X66201Y171005D01*
X66162Y171039D01*
X66129Y171079D01*
X66069Y171118D01*
X66014Y171165D01*
X65966Y171184D01*
X65947Y171196D01*
X64975Y172168D01*
X64975Y183432D01*
X65868Y184325D01*
X66636Y184325D01*
X66706Y184336D01*
X66778Y184338D01*
X66827Y184356D01*
X66878Y184364D01*
X66942Y184398D01*
X67009Y184423D01*
X67050Y184455D01*
X67096Y184480D01*
X67145Y184532D01*
X67201Y184576D01*
X67229Y184620D01*
X67265Y184658D01*
X67295Y184723D01*
X67334Y184783D01*
X67347Y184834D01*
X67369Y184881D01*
X67377Y184952D01*
X67394Y185022D01*
X67390Y185074D01*
X67396Y185125D01*
X67381Y185196D01*
X67375Y185267D01*
X67355Y185315D01*
X67344Y185366D01*
X67307Y185427D01*
X67279Y185493D01*
X67234Y185549D01*
X67217Y185577D01*
X67200Y185592D01*
X67174Y185624D01*
X52577Y200221D01*
X52577Y208614D01*
X52574Y208634D01*
X52576Y208653D01*
X52554Y208755D01*
X52538Y208857D01*
X52528Y208874D01*
X52524Y208894D01*
X52471Y208983D01*
X52422Y209074D01*
X52408Y209088D01*
X52398Y209105D01*
X52319Y209172D01*
X52244Y209244D01*
X52226Y209252D01*
X52211Y209265D01*
X52115Y209304D01*
X52021Y209347D01*
X52001Y209349D01*
X51983Y209357D01*
X51816Y209375D01*
X48868Y209375D01*
X47975Y210268D01*
X47975Y218164D01*
X47964Y218234D01*
X47962Y218306D01*
X47944Y218355D01*
X47936Y218406D01*
X47902Y218470D01*
X47877Y218537D01*
X47845Y218578D01*
X47820Y218624D01*
X47768Y218673D01*
X47724Y218729D01*
X47680Y218757D01*
X47642Y218793D01*
X47577Y218823D01*
X47517Y218862D01*
X47466Y218875D01*
X47419Y218897D01*
X47348Y218905D01*
X47278Y218922D01*
X47226Y218918D01*
X47175Y218924D01*
X47104Y218909D01*
X47033Y218903D01*
X46985Y218883D01*
X46934Y218872D01*
X46873Y218835D01*
X46807Y218807D01*
X46751Y218762D01*
X46723Y218745D01*
X46708Y218728D01*
X46676Y218702D01*
X45182Y217208D01*
X45129Y217134D01*
X45069Y217064D01*
X45057Y217034D01*
X45038Y217008D01*
X45011Y216921D01*
X44977Y216836D01*
X44973Y216795D01*
X44966Y216773D01*
X44967Y216741D01*
X44959Y216669D01*
X44959Y171951D01*
X44973Y171860D01*
X44981Y171770D01*
X44993Y171740D01*
X44998Y171708D01*
X45041Y171627D01*
X45077Y171543D01*
X45103Y171511D01*
X45114Y171490D01*
X45137Y171468D01*
X45182Y171412D01*
X52579Y164015D01*
X52579Y131086D01*
X52582Y131066D01*
X52580Y131047D01*
X52602Y130945D01*
X52618Y130843D01*
X52628Y130826D01*
X52632Y130806D01*
X52685Y130717D01*
X52734Y130626D01*
X52748Y130612D01*
X52758Y130595D01*
X52837Y130528D01*
X52912Y130456D01*
X52930Y130448D01*
X52945Y130435D01*
X53041Y130396D01*
X53135Y130353D01*
X53155Y130351D01*
X53173Y130343D01*
X53340Y130325D01*
X53881Y130325D01*
X53951Y130336D01*
G37*
G36*
X131103Y44708D02*
X131103Y44708D01*
X131206Y44711D01*
X131225Y44718D01*
X131245Y44719D01*
X131340Y44760D01*
X131437Y44795D01*
X131453Y44808D01*
X131471Y44815D01*
X131602Y44920D01*
X140746Y54064D01*
X140799Y54138D01*
X140859Y54208D01*
X140871Y54238D01*
X140890Y54264D01*
X140917Y54351D01*
X140951Y54436D01*
X140955Y54477D01*
X140962Y54499D01*
X140961Y54531D01*
X140969Y54603D01*
X140969Y84082D01*
X140958Y84152D01*
X140956Y84224D01*
X140938Y84273D01*
X140930Y84324D01*
X140896Y84388D01*
X140871Y84455D01*
X140839Y84496D01*
X140814Y84542D01*
X140763Y84591D01*
X140718Y84647D01*
X140674Y84675D01*
X140636Y84711D01*
X140571Y84741D01*
X140511Y84780D01*
X140460Y84793D01*
X140413Y84815D01*
X140342Y84823D01*
X140272Y84840D01*
X140220Y84836D01*
X140169Y84842D01*
X140098Y84827D01*
X140027Y84821D01*
X139979Y84801D01*
X139928Y84790D01*
X139867Y84753D01*
X139801Y84725D01*
X139745Y84680D01*
X139717Y84663D01*
X139702Y84646D01*
X139670Y84620D01*
X120174Y65124D01*
X120132Y65066D01*
X120083Y65014D01*
X120061Y64967D01*
X120031Y64925D01*
X120010Y64856D01*
X119979Y64791D01*
X119974Y64739D01*
X119958Y64689D01*
X119960Y64618D01*
X119952Y64547D01*
X119963Y64496D01*
X119965Y64444D01*
X119989Y64376D01*
X120004Y64306D01*
X120031Y64262D01*
X120049Y64213D01*
X120094Y64157D01*
X120131Y64095D01*
X120170Y64061D01*
X120203Y64021D01*
X120263Y63982D01*
X120318Y63935D01*
X120366Y63916D01*
X120410Y63888D01*
X120479Y63870D01*
X120546Y63843D01*
X120617Y63835D01*
X120648Y63827D01*
X120672Y63829D01*
X120712Y63825D01*
X121182Y63825D01*
X121483Y63524D01*
X121557Y63470D01*
X121626Y63411D01*
X121656Y63399D01*
X121682Y63380D01*
X121769Y63353D01*
X121854Y63319D01*
X121895Y63315D01*
X121917Y63308D01*
X121950Y63309D01*
X122021Y63301D01*
X129300Y63301D01*
X129301Y63300D01*
X129301Y61021D01*
X129315Y60931D01*
X129323Y60840D01*
X129335Y60810D01*
X129340Y60778D01*
X129383Y60698D01*
X129419Y60614D01*
X129445Y60581D01*
X129456Y60561D01*
X129479Y60539D01*
X129524Y60483D01*
X129825Y60182D01*
X129825Y56418D01*
X129745Y56338D01*
X129733Y56322D01*
X129717Y56310D01*
X129661Y56222D01*
X129601Y56139D01*
X129595Y56120D01*
X129584Y56103D01*
X129559Y56002D01*
X129529Y55903D01*
X129529Y55883D01*
X129524Y55864D01*
X129532Y55761D01*
X129535Y55658D01*
X129542Y55639D01*
X129543Y55619D01*
X129584Y55524D01*
X129619Y55427D01*
X129632Y55411D01*
X129640Y55393D01*
X129745Y55262D01*
X129825Y55182D01*
X129825Y51418D01*
X129745Y51338D01*
X129733Y51322D01*
X129717Y51310D01*
X129661Y51222D01*
X129601Y51139D01*
X129595Y51120D01*
X129584Y51103D01*
X129559Y51002D01*
X129529Y50903D01*
X129529Y50883D01*
X129524Y50864D01*
X129532Y50761D01*
X129535Y50658D01*
X129542Y50639D01*
X129543Y50619D01*
X129584Y50524D01*
X129619Y50427D01*
X129632Y50411D01*
X129640Y50393D01*
X129745Y50262D01*
X129825Y50182D01*
X129825Y46418D01*
X129745Y46338D01*
X129733Y46322D01*
X129717Y46310D01*
X129661Y46222D01*
X129601Y46139D01*
X129595Y46120D01*
X129584Y46103D01*
X129559Y46002D01*
X129529Y45903D01*
X129529Y45884D01*
X129524Y45864D01*
X129532Y45761D01*
X129535Y45658D01*
X129542Y45639D01*
X129543Y45619D01*
X129584Y45524D01*
X129619Y45427D01*
X129632Y45411D01*
X129640Y45393D01*
X129745Y45262D01*
X129825Y45182D01*
X129899Y45129D01*
X129968Y45069D01*
X129998Y45057D01*
X130024Y45038D01*
X130111Y45011D01*
X130196Y44977D01*
X130237Y44973D01*
X130259Y44966D01*
X130292Y44967D01*
X130363Y44959D01*
X130487Y44959D01*
X130526Y44920D01*
X130542Y44909D01*
X130554Y44893D01*
X130641Y44837D01*
X130725Y44777D01*
X130744Y44771D01*
X130761Y44760D01*
X130862Y44735D01*
X130960Y44704D01*
X130980Y44705D01*
X131000Y44700D01*
X131103Y44708D01*
G37*
%LPC*%
G36*
X148368Y91425D02*
X148368Y91425D01*
X147475Y92318D01*
X147475Y113582D01*
X148368Y114475D01*
X161632Y114475D01*
X162525Y113582D01*
X162525Y92318D01*
X161632Y91425D01*
X148368Y91425D01*
G37*
%LPD*%
%LPC*%
G36*
X122770Y160809D02*
X122770Y160809D01*
X119661Y163918D01*
X119661Y168314D01*
X122770Y171423D01*
X123414Y171423D01*
X123434Y171426D01*
X123453Y171424D01*
X123555Y171446D01*
X123657Y171462D01*
X123674Y171472D01*
X123694Y171476D01*
X123783Y171529D01*
X123874Y171578D01*
X123888Y171592D01*
X123905Y171602D01*
X123972Y171681D01*
X124044Y171756D01*
X124052Y171774D01*
X124065Y171789D01*
X124104Y171885D01*
X124147Y171979D01*
X124149Y171999D01*
X124157Y172017D01*
X124175Y172184D01*
X124175Y183432D01*
X125068Y184325D01*
X137332Y184325D01*
X138225Y183432D01*
X138225Y172168D01*
X137332Y171275D01*
X133677Y171275D01*
X133586Y171261D01*
X133496Y171253D01*
X133466Y171241D01*
X133434Y171236D01*
X133353Y171193D01*
X133269Y171157D01*
X133237Y171131D01*
X133216Y171120D01*
X133194Y171097D01*
X133138Y171052D01*
X130498Y168412D01*
X130445Y168338D01*
X130385Y168268D01*
X130373Y168238D01*
X130354Y168212D01*
X130327Y168125D01*
X130293Y168040D01*
X130289Y167999D01*
X130282Y167977D01*
X130283Y167945D01*
X130275Y167873D01*
X130275Y163918D01*
X127166Y160809D01*
X122770Y160809D01*
G37*
%LPD*%
G36*
X88510Y56873D02*
X88510Y56873D01*
X88562Y56875D01*
X88630Y56899D01*
X88700Y56914D01*
X88745Y56941D01*
X88793Y56959D01*
X88849Y57004D01*
X88911Y57041D01*
X88945Y57080D01*
X88985Y57113D01*
X89024Y57173D01*
X89071Y57228D01*
X89090Y57276D01*
X89118Y57320D01*
X89136Y57389D01*
X89163Y57456D01*
X89171Y57527D01*
X89179Y57558D01*
X89177Y57582D01*
X89181Y57622D01*
X89181Y58586D01*
X90104Y59509D01*
X90116Y59525D01*
X90132Y59538D01*
X90188Y59625D01*
X90248Y59709D01*
X90254Y59728D01*
X90265Y59745D01*
X90290Y59845D01*
X90320Y59944D01*
X90320Y59964D01*
X90325Y59983D01*
X90317Y60086D01*
X90314Y60190D01*
X90307Y60209D01*
X90305Y60228D01*
X90265Y60323D01*
X90229Y60421D01*
X90217Y60437D01*
X90209Y60455D01*
X90104Y60586D01*
X64769Y85921D01*
X64769Y97514D01*
X64766Y97534D01*
X64768Y97553D01*
X64746Y97655D01*
X64730Y97757D01*
X64720Y97774D01*
X64716Y97794D01*
X64663Y97883D01*
X64614Y97974D01*
X64600Y97988D01*
X64590Y98005D01*
X64511Y98072D01*
X64436Y98144D01*
X64418Y98152D01*
X64403Y98165D01*
X64307Y98204D01*
X64213Y98247D01*
X64193Y98249D01*
X64175Y98257D01*
X64008Y98275D01*
X63668Y98275D01*
X63338Y98605D01*
X63322Y98617D01*
X63310Y98633D01*
X63223Y98689D01*
X63139Y98749D01*
X63120Y98755D01*
X63103Y98766D01*
X63002Y98791D01*
X62903Y98821D01*
X62884Y98821D01*
X62864Y98826D01*
X62761Y98818D01*
X62658Y98815D01*
X62639Y98808D01*
X62619Y98807D01*
X62524Y98766D01*
X62427Y98731D01*
X62411Y98718D01*
X62393Y98710D01*
X62262Y98605D01*
X61946Y98289D01*
X61893Y98215D01*
X61833Y98146D01*
X61821Y98116D01*
X61802Y98090D01*
X61775Y98003D01*
X61741Y97918D01*
X61737Y97877D01*
X61730Y97855D01*
X61731Y97822D01*
X61723Y97751D01*
X61723Y83559D01*
X61737Y83468D01*
X61745Y83378D01*
X61757Y83348D01*
X61762Y83316D01*
X61805Y83235D01*
X61841Y83151D01*
X61867Y83119D01*
X61878Y83098D01*
X61901Y83076D01*
X61946Y83020D01*
X87882Y57084D01*
X87940Y57042D01*
X87992Y56993D01*
X88039Y56971D01*
X88081Y56941D01*
X88150Y56920D01*
X88215Y56889D01*
X88267Y56884D01*
X88317Y56868D01*
X88388Y56870D01*
X88459Y56862D01*
X88510Y56873D01*
G37*
G36*
X70214Y96529D02*
X70214Y96529D01*
X70285Y96535D01*
X70333Y96555D01*
X70384Y96566D01*
X70445Y96603D01*
X70511Y96631D01*
X70567Y96676D01*
X70595Y96693D01*
X70610Y96710D01*
X70642Y96736D01*
X81310Y107404D01*
X81363Y107478D01*
X81423Y107548D01*
X81435Y107578D01*
X81454Y107604D01*
X81481Y107691D01*
X81515Y107776D01*
X81519Y107817D01*
X81526Y107839D01*
X81525Y107871D01*
X81533Y107943D01*
X81533Y117609D01*
X81519Y117700D01*
X81511Y117790D01*
X81499Y117820D01*
X81494Y117852D01*
X81451Y117933D01*
X81415Y118017D01*
X81389Y118049D01*
X81378Y118070D01*
X81355Y118092D01*
X81310Y118148D01*
X78524Y120934D01*
X78450Y120987D01*
X78380Y121047D01*
X78350Y121059D01*
X78324Y121078D01*
X78237Y121105D01*
X78152Y121139D01*
X78111Y121143D01*
X78089Y121150D01*
X78057Y121149D01*
X77985Y121157D01*
X71586Y121157D01*
X71566Y121154D01*
X71547Y121156D01*
X71445Y121134D01*
X71343Y121118D01*
X71326Y121108D01*
X71306Y121104D01*
X71217Y121051D01*
X71126Y121002D01*
X71112Y120988D01*
X71095Y120978D01*
X71028Y120899D01*
X70956Y120824D01*
X70948Y120806D01*
X70935Y120791D01*
X70896Y120695D01*
X70853Y120601D01*
X70851Y120581D01*
X70843Y120563D01*
X70825Y120396D01*
X70825Y119086D01*
X70828Y119066D01*
X70826Y119047D01*
X70848Y118945D01*
X70864Y118843D01*
X70874Y118826D01*
X70878Y118806D01*
X70931Y118717D01*
X70980Y118626D01*
X70994Y118612D01*
X71004Y118595D01*
X71083Y118528D01*
X71158Y118456D01*
X71176Y118448D01*
X71191Y118435D01*
X71287Y118396D01*
X71381Y118353D01*
X71401Y118351D01*
X71419Y118343D01*
X71586Y118325D01*
X78932Y118325D01*
X79825Y117432D01*
X79825Y111168D01*
X78932Y110275D01*
X72386Y110275D01*
X72366Y110272D01*
X72347Y110274D01*
X72245Y110252D01*
X72143Y110236D01*
X72126Y110226D01*
X72106Y110222D01*
X72017Y110169D01*
X71926Y110120D01*
X71912Y110106D01*
X71895Y110096D01*
X71828Y110017D01*
X71756Y109942D01*
X71748Y109924D01*
X71735Y109909D01*
X71696Y109813D01*
X71653Y109719D01*
X71651Y109699D01*
X71643Y109681D01*
X71625Y109514D01*
X71625Y105668D01*
X71048Y105091D01*
X71005Y105033D01*
X70959Y104984D01*
X70951Y104967D01*
X70935Y104948D01*
X70923Y104918D01*
X70904Y104892D01*
X70880Y104814D01*
X70855Y104761D01*
X70854Y104746D01*
X70843Y104720D01*
X70839Y104679D01*
X70832Y104657D01*
X70833Y104624D01*
X70825Y104553D01*
X70825Y99168D01*
X69898Y98242D01*
X69861Y98236D01*
X69844Y98226D01*
X69824Y98222D01*
X69735Y98169D01*
X69644Y98120D01*
X69630Y98106D01*
X69613Y98096D01*
X69546Y98017D01*
X69474Y97942D01*
X69466Y97924D01*
X69453Y97909D01*
X69414Y97813D01*
X69371Y97719D01*
X69369Y97699D01*
X69361Y97681D01*
X69343Y97514D01*
X69343Y97274D01*
X69354Y97204D01*
X69356Y97132D01*
X69374Y97083D01*
X69382Y97032D01*
X69416Y96968D01*
X69441Y96901D01*
X69473Y96860D01*
X69498Y96814D01*
X69550Y96765D01*
X69594Y96709D01*
X69638Y96681D01*
X69676Y96645D01*
X69741Y96615D01*
X69801Y96576D01*
X69852Y96563D01*
X69899Y96541D01*
X69970Y96533D01*
X70040Y96516D01*
X70092Y96520D01*
X70143Y96514D01*
X70214Y96529D01*
G37*
G36*
X113128Y32781D02*
X113128Y32781D01*
X113218Y32789D01*
X113248Y32801D01*
X113280Y32806D01*
X113361Y32849D01*
X113445Y32885D01*
X113477Y32911D01*
X113498Y32922D01*
X113520Y32945D01*
X113576Y32990D01*
X115100Y34514D01*
X115111Y34530D01*
X115127Y34542D01*
X115183Y34630D01*
X115243Y34713D01*
X115249Y34733D01*
X115260Y34749D01*
X115285Y34850D01*
X115316Y34949D01*
X115315Y34969D01*
X115320Y34988D01*
X115312Y35091D01*
X115309Y35194D01*
X115302Y35213D01*
X115301Y35233D01*
X115260Y35328D01*
X115225Y35425D01*
X115212Y35441D01*
X115205Y35459D01*
X115100Y35590D01*
X114838Y35852D01*
X113314Y37376D01*
X113138Y37552D01*
X113064Y37605D01*
X112994Y37665D01*
X112964Y37677D01*
X112938Y37696D01*
X112851Y37723D01*
X112766Y37757D01*
X112725Y37761D01*
X112703Y37768D01*
X112671Y37767D01*
X112599Y37775D01*
X112418Y37775D01*
X112338Y37855D01*
X112322Y37867D01*
X112310Y37883D01*
X112222Y37939D01*
X112139Y37999D01*
X112120Y38005D01*
X112103Y38016D01*
X112002Y38041D01*
X111903Y38071D01*
X111883Y38071D01*
X111864Y38076D01*
X111761Y38068D01*
X111658Y38065D01*
X111639Y38058D01*
X111619Y38057D01*
X111524Y38016D01*
X111427Y37981D01*
X111411Y37968D01*
X111393Y37960D01*
X111262Y37855D01*
X111095Y37688D01*
X111021Y37657D01*
X110989Y37631D01*
X110968Y37620D01*
X110946Y37597D01*
X110890Y37552D01*
X107666Y34328D01*
X107404Y34066D01*
X107362Y34008D01*
X107313Y33956D01*
X107291Y33909D01*
X107261Y33867D01*
X107240Y33798D01*
X107209Y33733D01*
X107204Y33681D01*
X107188Y33631D01*
X107190Y33560D01*
X107182Y33489D01*
X107193Y33438D01*
X107195Y33386D01*
X107219Y33318D01*
X107234Y33248D01*
X107261Y33203D01*
X107279Y33155D01*
X107324Y33099D01*
X107361Y33037D01*
X107400Y33003D01*
X107433Y32963D01*
X107493Y32924D01*
X107548Y32877D01*
X107596Y32858D01*
X107640Y32830D01*
X107709Y32812D01*
X107776Y32785D01*
X107847Y32777D01*
X107878Y32769D01*
X107902Y32771D01*
X107942Y32767D01*
X113037Y32767D01*
X113128Y32781D01*
G37*
G36*
X41187Y111764D02*
X41187Y111764D01*
X41290Y111767D01*
X41309Y111774D01*
X41329Y111775D01*
X41424Y111815D01*
X41521Y111851D01*
X41537Y111864D01*
X41555Y111871D01*
X41667Y111961D01*
X41686Y111976D01*
X41714Y112004D01*
X41767Y112078D01*
X41827Y112148D01*
X41839Y112178D01*
X41858Y112204D01*
X41885Y112291D01*
X41919Y112376D01*
X41923Y112417D01*
X41930Y112439D01*
X41929Y112471D01*
X41937Y112543D01*
X41937Y116498D01*
X42415Y116976D01*
X42457Y117034D01*
X42506Y117086D01*
X42528Y117133D01*
X42558Y117175D01*
X42580Y117244D01*
X42610Y117309D01*
X42615Y117361D01*
X42631Y117411D01*
X42629Y117482D01*
X42637Y117553D01*
X42626Y117604D01*
X42624Y117656D01*
X42600Y117724D01*
X42585Y117794D01*
X42558Y117839D01*
X42540Y117887D01*
X42495Y117943D01*
X42458Y118005D01*
X42419Y118039D01*
X42386Y118079D01*
X42326Y118118D01*
X42271Y118165D01*
X42223Y118184D01*
X42179Y118212D01*
X42110Y118230D01*
X42043Y118257D01*
X41972Y118265D01*
X41941Y118273D01*
X41918Y118271D01*
X41877Y118275D01*
X39586Y118275D01*
X39566Y118272D01*
X39547Y118274D01*
X39445Y118252D01*
X39343Y118236D01*
X39326Y118226D01*
X39306Y118222D01*
X39217Y118169D01*
X39126Y118120D01*
X39112Y118106D01*
X39095Y118096D01*
X39028Y118017D01*
X38956Y117942D01*
X38948Y117924D01*
X38935Y117909D01*
X38896Y117813D01*
X38853Y117719D01*
X38851Y117699D01*
X38843Y117681D01*
X38825Y117514D01*
X38825Y114076D01*
X38839Y113986D01*
X38847Y113895D01*
X38859Y113866D01*
X38864Y113834D01*
X38907Y113753D01*
X38943Y113669D01*
X38969Y113637D01*
X38980Y113616D01*
X39003Y113594D01*
X39048Y113538D01*
X40610Y111976D01*
X40626Y111965D01*
X40638Y111949D01*
X40726Y111893D01*
X40809Y111833D01*
X40828Y111827D01*
X40845Y111816D01*
X40946Y111791D01*
X41045Y111760D01*
X41064Y111761D01*
X41084Y111756D01*
X41187Y111764D01*
G37*
G36*
X70124Y222428D02*
X70124Y222428D01*
X70143Y222426D01*
X70245Y222448D01*
X70347Y222464D01*
X70364Y222474D01*
X70384Y222478D01*
X70473Y222531D01*
X70564Y222580D01*
X70578Y222594D01*
X70595Y222604D01*
X70662Y222683D01*
X70734Y222758D01*
X70742Y222776D01*
X70755Y222791D01*
X70794Y222887D01*
X70837Y222981D01*
X70839Y223001D01*
X70847Y223019D01*
X70865Y223186D01*
X70865Y223451D01*
X70904Y223490D01*
X70946Y223548D01*
X70995Y223600D01*
X71017Y223647D01*
X71047Y223689D01*
X71068Y223758D01*
X71099Y223823D01*
X71104Y223875D01*
X71120Y223925D01*
X71118Y223996D01*
X71126Y224067D01*
X71115Y224118D01*
X71113Y224170D01*
X71089Y224238D01*
X71074Y224308D01*
X71047Y224353D01*
X71029Y224401D01*
X70984Y224457D01*
X70947Y224519D01*
X70908Y224553D01*
X70875Y224593D01*
X70815Y224632D01*
X70760Y224679D01*
X70712Y224698D01*
X70668Y224726D01*
X70599Y224744D01*
X70532Y224771D01*
X70461Y224779D01*
X70430Y224787D01*
X70406Y224785D01*
X70366Y224789D01*
X65270Y224789D01*
X65201Y224778D01*
X65130Y224776D01*
X65129Y224776D01*
X65128Y224776D01*
X65079Y224758D01*
X65028Y224750D01*
X64965Y224717D01*
X64899Y224692D01*
X64898Y224692D01*
X64897Y224691D01*
X64857Y224659D01*
X64810Y224634D01*
X64762Y224583D01*
X64706Y224539D01*
X64706Y224538D01*
X64705Y224538D01*
X64677Y224494D01*
X64641Y224456D01*
X64611Y224392D01*
X64573Y224333D01*
X64573Y224331D01*
X64572Y224331D01*
X64559Y224281D01*
X64537Y224233D01*
X64530Y224163D01*
X64512Y224094D01*
X64512Y224093D01*
X64512Y224092D01*
X64516Y224041D01*
X64510Y223989D01*
X64525Y223919D01*
X64531Y223849D01*
X64531Y223848D01*
X64531Y223847D01*
X64551Y223799D01*
X64562Y223748D01*
X64599Y223688D01*
X64626Y223622D01*
X64627Y223622D01*
X64627Y223621D01*
X64672Y223565D01*
X64689Y223537D01*
X64707Y223522D01*
X64732Y223490D01*
X65574Y222648D01*
X65648Y222595D01*
X65718Y222535D01*
X65748Y222523D01*
X65774Y222504D01*
X65861Y222477D01*
X65946Y222443D01*
X65987Y222439D01*
X66009Y222432D01*
X66041Y222433D01*
X66113Y222425D01*
X70104Y222425D01*
X70124Y222428D01*
G37*
G36*
X99411Y35829D02*
X99411Y35829D01*
X99502Y35837D01*
X99532Y35849D01*
X99564Y35854D01*
X99645Y35897D01*
X99729Y35933D01*
X99761Y35959D01*
X99782Y35970D01*
X99804Y35993D01*
X99860Y36038D01*
X100822Y37000D01*
X100864Y37058D01*
X100913Y37110D01*
X100935Y37157D01*
X100965Y37199D01*
X100986Y37268D01*
X101017Y37333D01*
X101022Y37385D01*
X101038Y37435D01*
X101036Y37506D01*
X101044Y37577D01*
X101033Y37628D01*
X101031Y37680D01*
X101007Y37748D01*
X100992Y37818D01*
X100965Y37863D01*
X100947Y37911D01*
X100902Y37967D01*
X100865Y38029D01*
X100826Y38063D01*
X100793Y38103D01*
X100733Y38142D01*
X100678Y38189D01*
X100630Y38208D01*
X100586Y38236D01*
X100517Y38254D01*
X100450Y38281D01*
X100379Y38289D01*
X100348Y38297D01*
X100324Y38295D01*
X100284Y38299D01*
X99459Y38299D01*
X99369Y38285D01*
X99278Y38277D01*
X99249Y38265D01*
X99217Y38260D01*
X99136Y38217D01*
X99052Y38181D01*
X99020Y38155D01*
X98999Y38144D01*
X98977Y38121D01*
X98921Y38076D01*
X98110Y37265D01*
X98098Y37249D01*
X98082Y37236D01*
X98026Y37149D01*
X97966Y37065D01*
X97960Y37046D01*
X97949Y37029D01*
X97924Y36929D01*
X97894Y36830D01*
X97894Y36810D01*
X97889Y36791D01*
X97897Y36688D01*
X97900Y36584D01*
X97907Y36565D01*
X97909Y36546D01*
X97949Y36451D01*
X97985Y36353D01*
X97997Y36337D01*
X98005Y36319D01*
X98110Y36188D01*
X98260Y36038D01*
X98334Y35985D01*
X98404Y35925D01*
X98434Y35913D01*
X98460Y35894D01*
X98547Y35867D01*
X98632Y35833D01*
X98673Y35829D01*
X98695Y35822D01*
X98727Y35823D01*
X98799Y35815D01*
X99321Y35815D01*
X99411Y35829D01*
G37*
G36*
X62104Y116506D02*
X62104Y116506D01*
X62156Y116508D01*
X62224Y116532D01*
X62294Y116547D01*
X62338Y116574D01*
X62387Y116592D01*
X62443Y116637D01*
X62505Y116674D01*
X62539Y116713D01*
X62579Y116746D01*
X62618Y116806D01*
X62665Y116861D01*
X62684Y116909D01*
X62712Y116953D01*
X62730Y117022D01*
X62757Y117089D01*
X62765Y117160D01*
X62773Y117191D01*
X62771Y117214D01*
X62775Y117255D01*
X62775Y117514D01*
X62773Y117527D01*
X62774Y117536D01*
X62773Y117542D01*
X62774Y117553D01*
X62752Y117655D01*
X62736Y117757D01*
X62726Y117774D01*
X62722Y117794D01*
X62669Y117883D01*
X62620Y117974D01*
X62606Y117988D01*
X62596Y118005D01*
X62517Y118072D01*
X62442Y118144D01*
X62424Y118152D01*
X62409Y118165D01*
X62313Y118204D01*
X62219Y118247D01*
X62199Y118249D01*
X62181Y118257D01*
X62014Y118275D01*
X61755Y118275D01*
X61685Y118264D01*
X61613Y118262D01*
X61564Y118244D01*
X61513Y118236D01*
X61449Y118202D01*
X61382Y118177D01*
X61341Y118145D01*
X61295Y118120D01*
X61246Y118069D01*
X61190Y118024D01*
X61162Y117980D01*
X61126Y117942D01*
X61096Y117877D01*
X61057Y117817D01*
X61044Y117766D01*
X61022Y117719D01*
X61014Y117648D01*
X60997Y117578D01*
X61001Y117526D01*
X60995Y117475D01*
X61010Y117404D01*
X61016Y117333D01*
X61036Y117285D01*
X61047Y117234D01*
X61084Y117173D01*
X61112Y117107D01*
X61157Y117051D01*
X61174Y117023D01*
X61188Y117011D01*
X61191Y117006D01*
X61198Y117000D01*
X61217Y116976D01*
X61476Y116717D01*
X61534Y116675D01*
X61586Y116626D01*
X61633Y116604D01*
X61675Y116574D01*
X61744Y116553D01*
X61809Y116522D01*
X61861Y116517D01*
X61911Y116501D01*
X61982Y116503D01*
X62053Y116495D01*
X62104Y116506D01*
G37*
G36*
X98104Y45454D02*
X98104Y45454D01*
X98156Y45456D01*
X98224Y45480D01*
X98294Y45495D01*
X98338Y45522D01*
X98387Y45540D01*
X98443Y45585D01*
X98505Y45622D01*
X98539Y45661D01*
X98579Y45694D01*
X98618Y45754D01*
X98665Y45809D01*
X98684Y45857D01*
X98712Y45901D01*
X98730Y45970D01*
X98757Y46037D01*
X98765Y46108D01*
X98773Y46139D01*
X98771Y46162D01*
X98775Y46203D01*
X98775Y46460D01*
X98764Y46530D01*
X98762Y46602D01*
X98744Y46651D01*
X98736Y46702D01*
X98702Y46766D01*
X98677Y46833D01*
X98645Y46874D01*
X98620Y46920D01*
X98569Y46969D01*
X98524Y47025D01*
X98480Y47053D01*
X98442Y47089D01*
X98377Y47119D01*
X98317Y47158D01*
X98266Y47171D01*
X98219Y47193D01*
X98148Y47201D01*
X98078Y47218D01*
X98026Y47214D01*
X97975Y47220D01*
X97904Y47205D01*
X97833Y47199D01*
X97785Y47179D01*
X97734Y47168D01*
X97673Y47131D01*
X97607Y47103D01*
X97551Y47058D01*
X97523Y47041D01*
X97508Y47024D01*
X97476Y46998D01*
X97348Y46870D01*
X97336Y46854D01*
X97320Y46841D01*
X97264Y46754D01*
X97204Y46670D01*
X97198Y46651D01*
X97187Y46634D01*
X97162Y46534D01*
X97132Y46435D01*
X97132Y46415D01*
X97127Y46396D01*
X97135Y46292D01*
X97138Y46189D01*
X97145Y46170D01*
X97147Y46150D01*
X97187Y46055D01*
X97223Y45958D01*
X97235Y45942D01*
X97243Y45924D01*
X97348Y45793D01*
X97476Y45665D01*
X97534Y45623D01*
X97586Y45574D01*
X97633Y45552D01*
X97675Y45522D01*
X97744Y45501D01*
X97809Y45470D01*
X97861Y45465D01*
X97911Y45449D01*
X97982Y45451D01*
X98053Y45443D01*
X98104Y45454D01*
G37*
G36*
X135746Y129756D02*
X135746Y129756D01*
X135817Y129762D01*
X135865Y129782D01*
X135916Y129793D01*
X135977Y129830D01*
X136043Y129858D01*
X136099Y129903D01*
X136127Y129920D01*
X136142Y129937D01*
X136174Y129963D01*
X136337Y130126D01*
X136379Y130184D01*
X136428Y130236D01*
X136450Y130283D01*
X136480Y130325D01*
X136501Y130394D01*
X136532Y130459D01*
X136537Y130511D01*
X136553Y130561D01*
X136551Y130632D01*
X136559Y130703D01*
X136548Y130754D01*
X136546Y130806D01*
X136522Y130874D01*
X136507Y130944D01*
X136480Y130988D01*
X136462Y131037D01*
X136417Y131093D01*
X136380Y131155D01*
X136341Y131189D01*
X136308Y131229D01*
X136248Y131268D01*
X136193Y131315D01*
X136145Y131334D01*
X136101Y131362D01*
X136032Y131380D01*
X135965Y131407D01*
X135894Y131415D01*
X135863Y131423D01*
X135840Y131421D01*
X135799Y131425D01*
X135636Y131425D01*
X135616Y131422D01*
X135597Y131424D01*
X135495Y131402D01*
X135393Y131386D01*
X135376Y131376D01*
X135356Y131372D01*
X135267Y131319D01*
X135176Y131270D01*
X135162Y131256D01*
X135145Y131246D01*
X135078Y131167D01*
X135006Y131092D01*
X134998Y131074D01*
X134985Y131059D01*
X134946Y130963D01*
X134903Y130869D01*
X134901Y130849D01*
X134893Y130831D01*
X134875Y130664D01*
X134875Y130501D01*
X134886Y130431D01*
X134888Y130359D01*
X134906Y130310D01*
X134914Y130259D01*
X134948Y130195D01*
X134973Y130128D01*
X135005Y130087D01*
X135030Y130041D01*
X135081Y129992D01*
X135126Y129936D01*
X135170Y129908D01*
X135208Y129872D01*
X135273Y129842D01*
X135333Y129803D01*
X135384Y129790D01*
X135431Y129768D01*
X135502Y129760D01*
X135572Y129743D01*
X135624Y129747D01*
X135675Y129741D01*
X135746Y129756D01*
G37*
D10*
X93100Y215900D03*
X110100Y215900D03*
X55000Y215900D03*
X72000Y215900D03*
D11*
X99000Y102950D03*
X155000Y102950D03*
D12*
X112000Y139700D03*
X122000Y139700D03*
X132000Y139700D03*
X142000Y139700D03*
D10*
X131200Y215900D03*
X148200Y215900D03*
X131200Y177800D03*
X148200Y177800D03*
X93100Y177800D03*
X110100Y177800D03*
X55000Y177800D03*
X72000Y177800D03*
D13*
X102550Y58300D03*
X102550Y53300D03*
X102550Y48300D03*
X102550Y43300D03*
D14*
X109300Y41550D03*
X114300Y41550D03*
X119300Y41550D03*
D13*
X126050Y43300D03*
X126050Y48300D03*
X126050Y53300D03*
X126050Y58300D03*
D14*
X119300Y60050D03*
X114300Y60050D03*
X109300Y60050D03*
D15*
X66800Y104300D03*
X58800Y104300D03*
X50800Y104300D03*
X42800Y104300D03*
X34800Y104300D03*
D16*
X30300Y114300D03*
D15*
X34800Y124300D03*
X42800Y124300D03*
X50800Y124300D03*
X58800Y124300D03*
X66800Y124300D03*
D16*
X71300Y114300D03*
D17*
X67200Y107550D03*
D18*
X109728Y161544D02*
X109728Y166116D01*
X109728Y176784D01*
X120396Y150876D02*
X121920Y149352D01*
X120396Y150876D02*
X109728Y161544D01*
X121920Y149352D02*
X121920Y140208D01*
X109728Y176784D02*
X110100Y177800D01*
X121920Y140208D02*
X122000Y139700D01*
X147828Y172212D02*
X147828Y176784D01*
X147828Y172212D02*
X128016Y152400D01*
X121920Y152400D01*
X120396Y150876D01*
X147828Y176784D02*
X148200Y177800D01*
X131064Y201168D02*
X131064Y214884D01*
X131064Y201168D02*
X149352Y182880D01*
X149352Y178308D01*
X131064Y214884D02*
X131200Y215900D01*
X148200Y177800D02*
X149352Y178308D01*
X102108Y57912D02*
X100584Y57912D01*
X99060Y59436D01*
X97536Y59436D01*
X96012Y57912D01*
X67056Y86868D01*
X67056Y92964D02*
X67056Y103632D01*
X67056Y92964D02*
X67056Y86868D01*
X102108Y57912D02*
X102550Y58300D01*
X67056Y103632D02*
X66800Y104300D01*
X109728Y41148D02*
X109728Y39624D01*
X105156Y35052D01*
X102108Y35052D01*
X100584Y33528D01*
X97536Y33528D01*
X94488Y36576D01*
X94488Y41148D01*
X94488Y56388D02*
X96012Y57912D01*
X109300Y41550D02*
X109728Y41148D01*
X67056Y166116D02*
X67056Y167640D01*
X67056Y166116D02*
X67056Y124968D01*
X67056Y167640D02*
X71628Y172212D01*
X71628Y176784D01*
X67056Y124968D02*
X66800Y124300D01*
X71628Y176784D02*
X72000Y177800D01*
X54864Y201168D02*
X54864Y214884D01*
X54864Y201168D02*
X73152Y182880D01*
X73152Y178308D01*
X54864Y214884D02*
X55000Y215900D01*
X72000Y177800D02*
X73152Y178308D01*
X70104Y92964D02*
X67056Y92964D01*
X70104Y92964D02*
X83820Y106680D01*
X83820Y118872D01*
X79248Y123444D01*
X67056Y123444D01*
X66800Y124300D01*
X67056Y166116D02*
X109728Y166116D01*
D19*
X94488Y41148D03*
X94488Y56388D03*
D18*
X59436Y134112D02*
X59436Y167640D01*
X59436Y134112D02*
X59436Y124968D01*
X59436Y167640D02*
X54864Y172212D01*
X54864Y176784D01*
X59436Y124968D02*
X58800Y124300D01*
X54864Y176784D02*
X55000Y177800D01*
X114300Y62484D02*
X114300Y60050D01*
X114300Y62484D02*
X140208Y88392D01*
X140208Y126492D02*
X140208Y128016D01*
X140208Y126492D02*
X140208Y88392D01*
X140208Y128016D02*
X141732Y129540D01*
X141732Y138684D01*
X142000Y139700D01*
D19*
X59436Y134112D03*
X140208Y126492D03*
D18*
X108204Y88392D02*
X108204Y60960D01*
X108204Y88392D02*
X132588Y112776D01*
X132588Y138684D01*
X108204Y60960D02*
X109300Y60050D01*
X132588Y138684D02*
X132000Y139700D01*
X50292Y124968D02*
X50292Y163068D01*
X42672Y170688D01*
X42672Y217932D01*
X48768Y224028D01*
X60960Y224028D01*
X64008Y220980D01*
X64008Y208788D01*
X67056Y205740D01*
X71628Y205740D01*
X94488Y182880D01*
X94488Y178308D01*
X50292Y124968D02*
X50800Y124300D01*
X93100Y177800D02*
X94488Y178308D01*
X51816Y118872D02*
X56388Y114300D01*
X51816Y118872D02*
X51816Y123444D01*
X50800Y124300D01*
D19*
X108204Y88392D03*
X56388Y114300D03*
D18*
X33528Y105156D02*
X25908Y105156D01*
X124968Y166116D02*
X131064Y172212D01*
X131064Y176784D01*
X34800Y104300D02*
X33528Y105156D01*
X131064Y176784D02*
X131200Y177800D01*
D19*
X25908Y105156D03*
X124968Y166116D03*
D18*
X126492Y42672D02*
X129540Y42672D01*
X131064Y41148D01*
X143256Y53340D01*
X143256Y120396D01*
X160020Y137160D01*
X160020Y198120D01*
X147828Y210312D01*
X147828Y214884D01*
X126050Y43300D02*
X126492Y42672D01*
X147828Y214884D02*
X148200Y215900D01*
X94488Y214884D02*
X94488Y208788D01*
X99060Y204216D01*
X112776Y204216D01*
X118872Y210312D01*
X118872Y222504D01*
X123444Y227076D01*
X143256Y227076D01*
X149352Y220980D01*
X149352Y216408D01*
X94488Y214884D02*
X93100Y215900D01*
X148200Y215900D02*
X149352Y216408D01*
X73152Y216408D02*
X73152Y222504D01*
X76200Y225552D02*
X77724Y227076D01*
X76200Y225552D02*
X73152Y222504D01*
X77724Y227076D02*
X105156Y227076D01*
X111252Y220980D01*
X111252Y216408D01*
X73152Y216408D02*
X72000Y215900D01*
X110100Y215900D02*
X111252Y216408D01*
X114300Y41550D02*
X114300Y39624D01*
X115824Y38100D01*
X117348Y38100D01*
X120396Y41148D01*
X119300Y41550D01*
X102108Y48768D02*
X100584Y48768D01*
X99060Y50292D01*
X99060Y51816D01*
X100584Y53340D01*
X102108Y53340D01*
X102108Y48768D02*
X102550Y48300D01*
X102550Y53300D02*
X102108Y53340D01*
X117348Y38100D02*
X117348Y36576D01*
X118872Y35052D01*
X114300Y30480D01*
X96012Y30480D01*
X88392Y38100D01*
X88392Y44196D01*
X92964Y48768D01*
X96012Y48768D01*
X99060Y51816D01*
X50292Y105156D02*
X44196Y105156D01*
X50292Y105156D02*
X50800Y104300D01*
X51816Y105156D02*
X56388Y105156D01*
X57912Y105156D01*
X58800Y104300D01*
X51816Y105156D02*
X50800Y104300D01*
X35052Y114300D02*
X30300Y114300D01*
X41148Y108204D02*
X44196Y105156D01*
X41148Y108204D02*
X35052Y114300D01*
X42800Y104300D02*
X44196Y105156D01*
X65532Y114300D02*
X71300Y114300D01*
X65532Y114300D02*
X56388Y105156D01*
X58800Y104300D01*
X59436Y82296D02*
X92964Y48768D01*
X59436Y82296D02*
X59436Y103632D01*
X58800Y104300D01*
X76200Y225552D02*
X74676Y227076D01*
X47244Y227076D01*
X25908Y205740D01*
X25908Y117348D01*
X28956Y114300D01*
X30300Y114300D01*
X92964Y120396D02*
X111252Y138684D01*
X47244Y114300D02*
X41148Y108204D01*
X111252Y138684D02*
X112000Y139700D01*
X41148Y108204D02*
X42800Y104300D01*
D19*
X92964Y120396D03*
X47244Y114300D03*
M02*
