G04 EAGLE Gerber RS-274X export*
G75*
%MOMM*%
%FSLAX34Y34*%
%LPD*%
%INBottom Copper*%
%IPPOS*%
%AMOC8*
5,1,8,0,0,1.08239X$1,22.5*%
G01*
%ADD10C,1.524000*%
%ADD11C,0.152400*%
%ADD12C,0.756400*%


D10*
X495300Y411480D02*
X495300Y426720D01*
X520700Y426720D02*
X520700Y411480D01*
X546100Y411480D02*
X546100Y426720D01*
X571500Y426720D02*
X571500Y411480D01*
D11*
X521208Y419100D02*
X521208Y483616D01*
X521208Y419100D02*
X520700Y419100D01*
D12*
X521208Y483616D03*
D11*
X490728Y437388D02*
X439420Y386080D01*
X395224Y386080D01*
X382524Y373380D01*
X490728Y437388D02*
X499872Y437388D01*
X510540Y426720D01*
X510540Y406908D01*
X516636Y400812D01*
X527304Y400812D01*
X545592Y419100D01*
X546100Y419100D01*
X565404Y437388D02*
X565404Y478536D01*
X565404Y437388D02*
X547116Y419100D01*
X546100Y419100D01*
D12*
X382524Y373380D03*
X565404Y478536D03*
D11*
X495300Y419100D02*
X520700Y393700D01*
X520700Y260604D01*
X336296Y247904D02*
X298196Y286004D01*
X508508Y248412D02*
X520700Y260604D01*
X508508Y248412D02*
X370332Y248412D01*
X369824Y247904D01*
X336296Y247904D01*
D12*
X370332Y248412D03*
X298196Y286004D03*
X621792Y292608D03*
X673100Y254000D03*
X723900Y292100D03*
D11*
X622300Y292100D02*
X622298Y292144D01*
X622292Y292188D01*
X622283Y292231D01*
X622269Y292274D01*
X622252Y292315D01*
X622232Y292354D01*
X622208Y292391D01*
X622181Y292427D01*
X622151Y292459D01*
X622119Y292489D01*
X622083Y292516D01*
X622046Y292540D01*
X622007Y292560D01*
X621966Y292577D01*
X621923Y292591D01*
X621880Y292600D01*
X621836Y292606D01*
X621792Y292608D01*
X622300Y292100D01*
X621792Y292608D02*
X622300Y254000D01*
X673100Y254000D01*
X723900Y254000D01*
X723900Y292100D01*
M02*
