G04 EAGLE Gerber RS-274X export*
G75*
%MOMM*%
%FSLAX34Y34*%
%LPD*%
%INTop Copper*%
%IPPOS*%
%AMOC8*
5,1,8,0,0,1.08239X$1,22.5*%
G01*
%ADD10R,1.100000X1.000000*%
%ADD11C,1.524000*%
%ADD12R,0.450000X0.250000*%
%ADD13R,0.000000X0.000000*%
%ADD14R,0.250000X0.450000*%
%ADD15R,0.500000X0.900000*%
%ADD16R,1.400000X0.500000*%
%ADD17R,0.580000X0.250000*%
%ADD18C,0.152400*%
%ADD19C,0.756400*%


D10*
X524900Y508000D03*
X541900Y508000D03*
X461400Y482600D03*
X478400Y482600D03*
X436000Y419100D03*
X453000Y419100D03*
X575700Y469900D03*
X592700Y469900D03*
X537600Y469900D03*
X554600Y469900D03*
D11*
X495300Y426720D02*
X495300Y411480D01*
X520700Y411480D02*
X520700Y426720D01*
X546100Y426720D02*
X546100Y411480D01*
X571500Y411480D02*
X571500Y426720D01*
D12*
X356550Y312300D03*
X356550Y307300D03*
X356550Y302300D03*
D13*
X356550Y297300D03*
D14*
X363300Y295550D03*
X368300Y295550D03*
X373300Y295550D03*
D12*
X380050Y297300D03*
D13*
X380050Y302300D03*
X380050Y307300D03*
X380050Y312300D03*
X373300Y314050D03*
D14*
X368300Y314050D03*
X363300Y314050D03*
D15*
X689100Y282100D03*
X681100Y282100D03*
X673100Y282100D03*
X665100Y282100D03*
X657100Y282100D03*
D16*
X652600Y292100D03*
D15*
X657100Y302100D03*
X665100Y302100D03*
X673100Y302100D03*
X681100Y302100D03*
X689100Y302100D03*
D16*
X693600Y292100D03*
D17*
X689500Y285350D03*
D18*
X385572Y294132D02*
X385572Y220472D01*
X385572Y294132D02*
X382524Y297180D01*
X381000Y297180D01*
X380050Y297300D01*
X453000Y419100D02*
X472440Y419100D01*
X490728Y437388D01*
X501396Y437388D01*
X519684Y419100D01*
X520700Y419100D01*
X426720Y341376D02*
X382524Y297180D01*
X426720Y341376D02*
X426720Y439420D01*
X453000Y439420D01*
X453000Y419100D01*
X688848Y373380D02*
X688848Y303276D01*
X688848Y373380D02*
X592836Y469392D01*
X688848Y303276D02*
X689100Y302100D01*
X592836Y469392D02*
X592700Y469900D01*
X562356Y469392D02*
X554736Y469392D01*
X562356Y469392D02*
X569976Y461772D01*
X583692Y461772D01*
X591312Y469392D01*
X554736Y469392D02*
X554600Y469900D01*
X591312Y469392D02*
X592700Y469900D01*
X355092Y312420D02*
X353568Y312420D01*
X352044Y313944D01*
X352044Y421255D01*
X355092Y312420D02*
X356550Y312300D01*
X352044Y421255D02*
X421600Y482600D01*
X461400Y482600D01*
X495650Y482203D02*
X524900Y508000D01*
X461400Y482600D02*
X461400Y473964D01*
X545592Y478536D02*
X553212Y470916D01*
X545592Y478536D02*
X527304Y478536D01*
X522732Y473964D01*
X521208Y473964D01*
X553212Y470916D02*
X554600Y469900D01*
X521208Y470916D02*
X521208Y506648D01*
X524900Y508000D01*
X521208Y473964D02*
X521208Y470916D01*
D19*
X521208Y470916D03*
D18*
X689100Y302100D02*
X733900Y302100D01*
X385572Y220472D02*
X381000Y215900D01*
X733900Y282100D02*
X736600Y284800D01*
X736600Y299400D02*
X733900Y302100D01*
X736600Y299400D02*
X736600Y284800D01*
X465464Y469900D02*
X461400Y473964D01*
X465464Y469900D02*
X495300Y469900D01*
X495300Y481853D02*
X495650Y482203D01*
X495300Y481853D02*
X495300Y469900D01*
X363300Y295550D02*
X363300Y270518D01*
X689100Y282100D02*
X733900Y282100D01*
X359482Y266700D02*
X330200Y266700D01*
X317500Y254000D02*
X317500Y228600D01*
X330200Y215900D02*
X381000Y215900D01*
X330200Y266700D02*
X317500Y254000D01*
X317500Y228600D02*
X330200Y215900D01*
X359482Y266700D02*
X363300Y270518D01*
X679704Y303276D02*
X679704Y310896D01*
X571500Y419100D01*
X679704Y303276D02*
X681100Y302100D01*
X410972Y384556D02*
X410972Y450596D01*
X425196Y464820D01*
X531876Y464820D01*
X536448Y469392D01*
X368808Y315468D02*
X368300Y314050D01*
X536448Y469392D02*
X537600Y469900D01*
X571500Y425196D02*
X571500Y419100D01*
X571500Y425196D02*
X531876Y464820D01*
X410972Y384556D02*
X368300Y314050D01*
X381000Y373380D02*
X382524Y373380D01*
X381000Y373380D02*
X369824Y373380D01*
X672084Y306324D02*
X672084Y303276D01*
X672084Y306324D02*
X577596Y400812D01*
X565404Y400812D01*
X547116Y419100D01*
X672084Y303276D02*
X673100Y302100D01*
X547116Y419100D02*
X546100Y419100D01*
X574548Y470916D02*
X566928Y478536D01*
X565404Y478536D01*
X574548Y470916D02*
X575700Y469900D01*
D19*
X382524Y373380D03*
X565404Y478536D03*
D18*
X363300Y373380D02*
X363300Y314050D01*
X363300Y373380D02*
X369824Y373380D01*
X573024Y283464D02*
X656844Y283464D01*
X573024Y283464D02*
X437388Y419100D01*
X656844Y283464D02*
X657100Y282100D01*
X437388Y419100D02*
X436000Y419100D01*
X665988Y281940D02*
X672084Y281940D01*
X665988Y281940D02*
X665100Y282100D01*
X672084Y281940D02*
X673100Y282100D01*
X673608Y281940D02*
X679704Y281940D01*
X681100Y282100D01*
X673608Y281940D02*
X673100Y282100D01*
X653796Y291084D02*
X652600Y292100D01*
X693420Y291084D02*
X693600Y292100D01*
X486156Y483108D02*
X478536Y483108D01*
X486156Y483108D02*
X502710Y499662D01*
X478536Y483108D02*
X478400Y482600D01*
X541900Y508000D02*
X541900Y520700D01*
X515724Y535221D02*
X502710Y499662D01*
X353568Y303276D02*
X315468Y303276D01*
X353568Y303276D02*
X355092Y303276D01*
X353568Y303276D02*
X352044Y304800D01*
X355092Y307848D01*
X355092Y303276D02*
X356550Y302300D01*
X356550Y307300D02*
X355092Y307848D01*
X368808Y294132D02*
X368808Y292608D01*
X370332Y291084D01*
X373380Y294132D01*
X368808Y294132D02*
X368300Y295550D01*
X373300Y295550D02*
X373380Y294132D01*
X370332Y291084D02*
X370332Y248412D01*
X315468Y303276D02*
X298196Y286004D01*
X404876Y503428D02*
X482092Y503428D01*
X404876Y503428D02*
X323596Y422148D01*
X495300Y419100D02*
X621792Y292608D01*
X652272Y292608D02*
X652600Y292100D01*
D19*
X370332Y248412D03*
X298196Y286004D03*
D18*
X515724Y535221D02*
X527379Y535221D01*
X541900Y520700D01*
X482092Y503428D02*
X482092Y486292D01*
X478400Y482600D01*
X648926Y292608D02*
X652272Y292608D01*
X648926Y292608D02*
X648846Y292606D01*
X648766Y292601D01*
X648686Y292591D01*
X648607Y292578D01*
X648529Y292562D01*
X648451Y292542D01*
X648375Y292518D01*
X648300Y292491D01*
X648226Y292460D01*
X648153Y292426D01*
X648082Y292389D01*
X648013Y292348D01*
X647946Y292305D01*
X647881Y292258D01*
X647818Y292208D01*
X647758Y292155D01*
X647700Y292100D01*
X623018Y292100D02*
X622938Y292102D01*
X622858Y292107D01*
X622778Y292117D01*
X622699Y292130D01*
X622621Y292146D01*
X622543Y292166D01*
X622467Y292190D01*
X622392Y292217D01*
X622318Y292248D01*
X622245Y292282D01*
X622174Y292319D01*
X622105Y292360D01*
X622038Y292403D01*
X621973Y292450D01*
X621910Y292500D01*
X621850Y292553D01*
X621792Y292608D01*
D19*
X621792Y292608D03*
D18*
X623018Y292100D02*
X647700Y292100D01*
X665100Y282100D02*
X665100Y254000D01*
D19*
X647700Y241300D03*
D18*
X693600Y292100D02*
X723900Y292100D01*
D19*
X723900Y292100D03*
X723900Y254000D03*
D18*
X665100Y254000D01*
X323596Y307300D02*
X323596Y422148D01*
X323596Y307300D02*
X356550Y307300D01*
X647700Y241300D02*
X665100Y254000D01*
M02*
