G04 EAGLE Gerber RS-274X export*
G75*
%MOMM*%
%FSLAX34Y34*%
%LPD*%
%INSilkscreen Top*%
%IPPOS*%
%AMOC8*
5,1,8,0,0,1.08239X$1,22.5*%
G01*
%ADD10C,0.558800*%
%ADD11C,0.025400*%
%ADD12C,0.127000*%
%ADD13C,0.152400*%
%ADD14C,0.125000*%
%ADD15C,0.250000*%
%ADD16C,0.282838*%
%ADD17C,0.177800*%
%ADD18C,0.050800*%


D10*
X533400Y508305D02*
X533400Y507695D01*
D11*
X526330Y515747D02*
X525484Y515747D01*
X525429Y515749D01*
X525373Y515754D01*
X525319Y515763D01*
X525265Y515776D01*
X525212Y515792D01*
X525160Y515811D01*
X525109Y515834D01*
X525061Y515860D01*
X525013Y515890D01*
X524968Y515922D01*
X524926Y515957D01*
X524885Y515995D01*
X524847Y516036D01*
X524812Y516078D01*
X524780Y516123D01*
X524750Y516171D01*
X524724Y516219D01*
X524701Y516270D01*
X524682Y516322D01*
X524666Y516375D01*
X524653Y516429D01*
X524644Y516483D01*
X524639Y516539D01*
X524637Y516594D01*
X524637Y518710D01*
X524639Y518768D01*
X524645Y518825D01*
X524655Y518882D01*
X524668Y518939D01*
X524686Y518994D01*
X524707Y519047D01*
X524732Y519100D01*
X524760Y519150D01*
X524792Y519198D01*
X524827Y519245D01*
X524865Y519288D01*
X524906Y519329D01*
X524949Y519367D01*
X524996Y519402D01*
X525044Y519434D01*
X525094Y519462D01*
X525147Y519487D01*
X525200Y519508D01*
X525255Y519526D01*
X525312Y519539D01*
X525369Y519549D01*
X525426Y519555D01*
X525484Y519557D01*
X526330Y519557D01*
X527694Y515747D02*
X528753Y515747D01*
X528817Y515749D01*
X528881Y515755D01*
X528944Y515764D01*
X529006Y515778D01*
X529068Y515795D01*
X529128Y515816D01*
X529187Y515840D01*
X529245Y515868D01*
X529300Y515900D01*
X529354Y515934D01*
X529405Y515972D01*
X529455Y516013D01*
X529501Y516057D01*
X529545Y516103D01*
X529586Y516153D01*
X529624Y516204D01*
X529658Y516258D01*
X529690Y516313D01*
X529718Y516371D01*
X529742Y516430D01*
X529763Y516490D01*
X529780Y516552D01*
X529794Y516614D01*
X529803Y516677D01*
X529809Y516741D01*
X529811Y516805D01*
X529809Y516869D01*
X529803Y516933D01*
X529794Y516996D01*
X529780Y517058D01*
X529763Y517120D01*
X529742Y517180D01*
X529718Y517239D01*
X529690Y517297D01*
X529658Y517352D01*
X529624Y517406D01*
X529586Y517457D01*
X529545Y517507D01*
X529501Y517553D01*
X529455Y517597D01*
X529405Y517638D01*
X529354Y517676D01*
X529300Y517710D01*
X529245Y517742D01*
X529187Y517770D01*
X529128Y517794D01*
X529068Y517815D01*
X529006Y517832D01*
X528944Y517846D01*
X528881Y517855D01*
X528817Y517861D01*
X528753Y517863D01*
X528964Y519557D02*
X527694Y519557D01*
X528964Y519557D02*
X529021Y519555D01*
X529077Y519549D01*
X529133Y519540D01*
X529188Y519527D01*
X529242Y519510D01*
X529295Y519490D01*
X529346Y519466D01*
X529396Y519439D01*
X529443Y519408D01*
X529489Y519375D01*
X529532Y519338D01*
X529573Y519299D01*
X529611Y519257D01*
X529646Y519212D01*
X529678Y519166D01*
X529707Y519117D01*
X529732Y519067D01*
X529754Y519014D01*
X529773Y518961D01*
X529788Y518906D01*
X529799Y518851D01*
X529807Y518795D01*
X529811Y518738D01*
X529811Y518682D01*
X529807Y518625D01*
X529799Y518569D01*
X529788Y518514D01*
X529773Y518459D01*
X529754Y518406D01*
X529732Y518353D01*
X529707Y518303D01*
X529678Y518254D01*
X529646Y518208D01*
X529611Y518163D01*
X529573Y518121D01*
X529532Y518082D01*
X529489Y518045D01*
X529443Y518012D01*
X529396Y517981D01*
X529346Y517954D01*
X529295Y517930D01*
X529242Y517910D01*
X529188Y517893D01*
X529133Y517880D01*
X529077Y517871D01*
X529021Y517865D01*
X528964Y517863D01*
X528964Y517864D02*
X528118Y517864D01*
D10*
X469900Y482905D02*
X469900Y482295D01*
D11*
X462830Y490347D02*
X461984Y490347D01*
X461929Y490349D01*
X461873Y490354D01*
X461819Y490363D01*
X461765Y490376D01*
X461712Y490392D01*
X461660Y490411D01*
X461609Y490434D01*
X461561Y490460D01*
X461513Y490490D01*
X461468Y490522D01*
X461426Y490557D01*
X461385Y490595D01*
X461347Y490636D01*
X461312Y490678D01*
X461280Y490723D01*
X461250Y490771D01*
X461224Y490819D01*
X461201Y490870D01*
X461182Y490922D01*
X461166Y490975D01*
X461153Y491029D01*
X461144Y491083D01*
X461139Y491139D01*
X461137Y491194D01*
X461137Y493310D01*
X461139Y493368D01*
X461145Y493425D01*
X461155Y493482D01*
X461168Y493539D01*
X461186Y493594D01*
X461207Y493647D01*
X461232Y493700D01*
X461260Y493750D01*
X461292Y493798D01*
X461327Y493845D01*
X461365Y493888D01*
X461406Y493929D01*
X461449Y493967D01*
X461496Y494002D01*
X461544Y494034D01*
X461594Y494062D01*
X461647Y494087D01*
X461700Y494108D01*
X461755Y494126D01*
X461812Y494139D01*
X461869Y494149D01*
X461926Y494155D01*
X461984Y494157D01*
X462830Y494157D01*
X465041Y494157D02*
X464194Y491194D01*
X466311Y491194D01*
X465676Y492040D02*
X465676Y490347D01*
D12*
X440448Y432181D02*
X440448Y427355D01*
X440448Y432181D02*
X441789Y432181D01*
X441860Y432179D01*
X441932Y432173D01*
X442002Y432164D01*
X442072Y432151D01*
X442142Y432134D01*
X442210Y432113D01*
X442277Y432089D01*
X442343Y432061D01*
X442407Y432030D01*
X442470Y431995D01*
X442530Y431957D01*
X442589Y431916D01*
X442645Y431872D01*
X442699Y431825D01*
X442750Y431776D01*
X442798Y431723D01*
X442844Y431668D01*
X442886Y431611D01*
X442926Y431551D01*
X442962Y431490D01*
X442995Y431426D01*
X443024Y431361D01*
X443050Y431295D01*
X443073Y431227D01*
X443092Y431158D01*
X443107Y431088D01*
X443118Y431018D01*
X443126Y430947D01*
X443130Y430876D01*
X443130Y430804D01*
X443126Y430733D01*
X443118Y430662D01*
X443107Y430592D01*
X443092Y430522D01*
X443073Y430453D01*
X443050Y430385D01*
X443024Y430319D01*
X442995Y430254D01*
X442962Y430190D01*
X442926Y430129D01*
X442886Y430069D01*
X442844Y430012D01*
X442798Y429957D01*
X442750Y429904D01*
X442699Y429855D01*
X442645Y429808D01*
X442589Y429764D01*
X442530Y429723D01*
X442470Y429685D01*
X442407Y429650D01*
X442343Y429619D01*
X442277Y429591D01*
X442210Y429567D01*
X442142Y429546D01*
X442072Y429529D01*
X442002Y429516D01*
X441932Y429507D01*
X441860Y429501D01*
X441789Y429499D01*
X441789Y429500D02*
X440448Y429500D01*
X442057Y429500D02*
X443129Y427355D01*
X447345Y432181D02*
X447413Y432179D01*
X447480Y432173D01*
X447547Y432164D01*
X447614Y432151D01*
X447679Y432134D01*
X447744Y432113D01*
X447807Y432089D01*
X447869Y432061D01*
X447929Y432030D01*
X447987Y431996D01*
X448043Y431958D01*
X448098Y431918D01*
X448149Y431874D01*
X448198Y431827D01*
X448245Y431778D01*
X448289Y431727D01*
X448329Y431672D01*
X448367Y431616D01*
X448401Y431558D01*
X448432Y431498D01*
X448460Y431436D01*
X448484Y431373D01*
X448505Y431308D01*
X448522Y431243D01*
X448535Y431176D01*
X448544Y431109D01*
X448550Y431042D01*
X448552Y430974D01*
X447345Y432181D02*
X447267Y432179D01*
X447189Y432173D01*
X447112Y432163D01*
X447035Y432150D01*
X446959Y432132D01*
X446884Y432111D01*
X446810Y432086D01*
X446738Y432057D01*
X446667Y432025D01*
X446598Y431989D01*
X446530Y431950D01*
X446465Y431907D01*
X446402Y431861D01*
X446341Y431812D01*
X446283Y431760D01*
X446228Y431705D01*
X446175Y431648D01*
X446126Y431588D01*
X446079Y431525D01*
X446036Y431461D01*
X445996Y431394D01*
X445959Y431325D01*
X445926Y431254D01*
X445896Y431182D01*
X445870Y431109D01*
X448150Y430036D02*
X448199Y430085D01*
X448246Y430137D01*
X448289Y430192D01*
X448330Y430249D01*
X448368Y430308D01*
X448402Y430369D01*
X448433Y430432D01*
X448461Y430496D01*
X448485Y430562D01*
X448505Y430628D01*
X448522Y430696D01*
X448535Y430765D01*
X448544Y430834D01*
X448550Y430904D01*
X448552Y430974D01*
X448150Y430036D02*
X445871Y427355D01*
X448552Y427355D01*
X580148Y478155D02*
X580148Y482981D01*
X581489Y482981D01*
X581560Y482979D01*
X581632Y482973D01*
X581702Y482964D01*
X581772Y482951D01*
X581842Y482934D01*
X581910Y482913D01*
X581977Y482889D01*
X582043Y482861D01*
X582107Y482830D01*
X582170Y482795D01*
X582230Y482757D01*
X582289Y482716D01*
X582345Y482672D01*
X582399Y482625D01*
X582450Y482576D01*
X582498Y482523D01*
X582544Y482468D01*
X582586Y482411D01*
X582626Y482351D01*
X582662Y482290D01*
X582695Y482226D01*
X582724Y482161D01*
X582750Y482095D01*
X582773Y482027D01*
X582792Y481958D01*
X582807Y481888D01*
X582818Y481818D01*
X582826Y481747D01*
X582830Y481676D01*
X582830Y481604D01*
X582826Y481533D01*
X582818Y481462D01*
X582807Y481392D01*
X582792Y481322D01*
X582773Y481253D01*
X582750Y481185D01*
X582724Y481119D01*
X582695Y481054D01*
X582662Y480990D01*
X582626Y480929D01*
X582586Y480869D01*
X582544Y480812D01*
X582498Y480757D01*
X582450Y480704D01*
X582399Y480655D01*
X582345Y480608D01*
X582289Y480564D01*
X582230Y480523D01*
X582170Y480485D01*
X582107Y480450D01*
X582043Y480419D01*
X581977Y480391D01*
X581910Y480367D01*
X581842Y480346D01*
X581772Y480329D01*
X581702Y480316D01*
X581632Y480307D01*
X581560Y480301D01*
X581489Y480299D01*
X581489Y480300D02*
X580148Y480300D01*
X581757Y480300D02*
X582829Y478155D01*
X585571Y479227D02*
X586643Y482981D01*
X585571Y479227D02*
X588252Y479227D01*
X587448Y480300D02*
X587448Y478155D01*
X542048Y478155D02*
X542048Y482981D01*
X543389Y482981D01*
X543460Y482979D01*
X543532Y482973D01*
X543602Y482964D01*
X543672Y482951D01*
X543742Y482934D01*
X543810Y482913D01*
X543877Y482889D01*
X543943Y482861D01*
X544007Y482830D01*
X544070Y482795D01*
X544130Y482757D01*
X544189Y482716D01*
X544245Y482672D01*
X544299Y482625D01*
X544350Y482576D01*
X544398Y482523D01*
X544444Y482468D01*
X544486Y482411D01*
X544526Y482351D01*
X544562Y482290D01*
X544595Y482226D01*
X544624Y482161D01*
X544650Y482095D01*
X544673Y482027D01*
X544692Y481958D01*
X544707Y481888D01*
X544718Y481818D01*
X544726Y481747D01*
X544730Y481676D01*
X544730Y481604D01*
X544726Y481533D01*
X544718Y481462D01*
X544707Y481392D01*
X544692Y481322D01*
X544673Y481253D01*
X544650Y481185D01*
X544624Y481119D01*
X544595Y481054D01*
X544562Y480990D01*
X544526Y480929D01*
X544486Y480869D01*
X544444Y480812D01*
X544398Y480757D01*
X544350Y480704D01*
X544299Y480655D01*
X544245Y480608D01*
X544189Y480564D01*
X544130Y480523D01*
X544070Y480485D01*
X544007Y480450D01*
X543943Y480419D01*
X543877Y480391D01*
X543810Y480367D01*
X543742Y480346D01*
X543672Y480329D01*
X543602Y480316D01*
X543532Y480307D01*
X543460Y480301D01*
X543389Y480299D01*
X543389Y480300D02*
X542048Y480300D01*
X543657Y480300D02*
X544729Y478155D01*
X547471Y478155D02*
X549079Y478155D01*
X549144Y478157D01*
X549208Y478163D01*
X549272Y478173D01*
X549336Y478186D01*
X549398Y478204D01*
X549459Y478225D01*
X549519Y478249D01*
X549577Y478278D01*
X549634Y478310D01*
X549688Y478345D01*
X549740Y478383D01*
X549790Y478425D01*
X549837Y478469D01*
X549881Y478516D01*
X549923Y478566D01*
X549961Y478618D01*
X549996Y478672D01*
X550028Y478729D01*
X550057Y478787D01*
X550081Y478847D01*
X550102Y478908D01*
X550120Y478970D01*
X550133Y479034D01*
X550143Y479098D01*
X550149Y479162D01*
X550151Y479227D01*
X550152Y479227D02*
X550152Y479764D01*
X550151Y479764D02*
X550149Y479829D01*
X550143Y479893D01*
X550133Y479957D01*
X550120Y480021D01*
X550102Y480083D01*
X550081Y480144D01*
X550057Y480204D01*
X550028Y480262D01*
X549996Y480319D01*
X549961Y480373D01*
X549923Y480425D01*
X549881Y480475D01*
X549837Y480522D01*
X549790Y480566D01*
X549740Y480608D01*
X549688Y480646D01*
X549634Y480681D01*
X549577Y480713D01*
X549519Y480742D01*
X549459Y480766D01*
X549398Y480787D01*
X549336Y480805D01*
X549272Y480818D01*
X549208Y480828D01*
X549144Y480834D01*
X549079Y480836D01*
X547471Y480836D01*
X547471Y482981D01*
X550152Y482981D01*
D13*
X501650Y431800D02*
X488950Y431800D01*
X501650Y431800D02*
X508000Y425450D01*
X508000Y412750D02*
X501650Y406400D01*
X508000Y425450D02*
X514350Y431800D01*
X527050Y431800D01*
X533400Y425450D01*
X533400Y412750D02*
X527050Y406400D01*
X514350Y406400D01*
X508000Y412750D01*
X482600Y412750D02*
X482600Y425450D01*
X488950Y431800D01*
X482600Y412750D02*
X488950Y406400D01*
X501650Y406400D01*
X533400Y425450D02*
X539750Y431800D01*
X552450Y431800D01*
X558800Y425450D01*
X558800Y412750D02*
X552450Y406400D01*
X539750Y406400D01*
X533400Y412750D01*
X565150Y431800D02*
X577850Y431800D01*
X584200Y425450D01*
X584200Y412750D01*
X577850Y406400D01*
X558800Y425450D02*
X565150Y431800D01*
X558800Y412750D02*
X565150Y406400D01*
X577850Y406400D01*
D12*
X474980Y424815D02*
X471805Y422275D01*
X474980Y424815D02*
X474980Y413385D01*
X471805Y413385D02*
X478155Y413385D01*
X587375Y415925D02*
X589915Y424815D01*
X587375Y415925D02*
X593725Y415925D01*
X591820Y418465D02*
X591820Y413385D01*
X489585Y438785D02*
X489583Y438685D01*
X489577Y438586D01*
X489567Y438486D01*
X489554Y438388D01*
X489536Y438289D01*
X489515Y438192D01*
X489490Y438096D01*
X489461Y438000D01*
X489428Y437906D01*
X489392Y437813D01*
X489352Y437722D01*
X489308Y437632D01*
X489261Y437544D01*
X489211Y437458D01*
X489157Y437374D01*
X489100Y437292D01*
X489040Y437213D01*
X488976Y437135D01*
X488910Y437061D01*
X488841Y436989D01*
X488769Y436920D01*
X488695Y436854D01*
X488617Y436790D01*
X488538Y436730D01*
X488456Y436673D01*
X488372Y436619D01*
X488286Y436569D01*
X488198Y436522D01*
X488108Y436478D01*
X488017Y436438D01*
X487924Y436402D01*
X487830Y436369D01*
X487734Y436340D01*
X487638Y436315D01*
X487541Y436294D01*
X487442Y436276D01*
X487344Y436263D01*
X487244Y436253D01*
X487145Y436247D01*
X487045Y436245D01*
X486904Y436247D01*
X486763Y436252D01*
X486622Y436262D01*
X486481Y436275D01*
X486341Y436291D01*
X486201Y436312D01*
X486062Y436336D01*
X485923Y436364D01*
X485786Y436395D01*
X485649Y436430D01*
X485513Y436468D01*
X485378Y436510D01*
X485245Y436556D01*
X485112Y436605D01*
X484981Y436658D01*
X484852Y436714D01*
X484723Y436773D01*
X484597Y436836D01*
X484472Y436902D01*
X484349Y436971D01*
X484228Y437044D01*
X484109Y437120D01*
X483991Y437199D01*
X483876Y437280D01*
X483764Y437365D01*
X483653Y437453D01*
X483545Y437544D01*
X483439Y437637D01*
X483336Y437734D01*
X483235Y437833D01*
X483553Y445135D02*
X483555Y445235D01*
X483561Y445334D01*
X483571Y445434D01*
X483584Y445532D01*
X483602Y445631D01*
X483623Y445728D01*
X483648Y445824D01*
X483677Y445920D01*
X483710Y446014D01*
X483746Y446107D01*
X483786Y446198D01*
X483830Y446288D01*
X483877Y446376D01*
X483927Y446462D01*
X483981Y446546D01*
X484038Y446628D01*
X484098Y446707D01*
X484162Y446785D01*
X484228Y446859D01*
X484297Y446931D01*
X484369Y447000D01*
X484443Y447066D01*
X484521Y447130D01*
X484600Y447190D01*
X484682Y447247D01*
X484766Y447301D01*
X484852Y447351D01*
X484940Y447398D01*
X485030Y447442D01*
X485121Y447482D01*
X485214Y447518D01*
X485308Y447551D01*
X485404Y447580D01*
X485500Y447605D01*
X485597Y447626D01*
X485696Y447644D01*
X485794Y447657D01*
X485894Y447667D01*
X485993Y447673D01*
X486093Y447675D01*
X486093Y447676D02*
X486226Y447674D01*
X486359Y447669D01*
X486492Y447659D01*
X486625Y447646D01*
X486757Y447629D01*
X486889Y447609D01*
X487020Y447585D01*
X487150Y447557D01*
X487280Y447526D01*
X487408Y447491D01*
X487536Y447452D01*
X487662Y447410D01*
X487787Y447364D01*
X487911Y447315D01*
X488034Y447263D01*
X488155Y447207D01*
X488274Y447147D01*
X488392Y447085D01*
X488507Y447019D01*
X488621Y446950D01*
X488733Y446877D01*
X488843Y446802D01*
X488951Y446723D01*
X484822Y442912D02*
X484738Y442964D01*
X484655Y443019D01*
X484575Y443078D01*
X484497Y443139D01*
X484422Y443203D01*
X484349Y443271D01*
X484278Y443341D01*
X484211Y443413D01*
X484146Y443488D01*
X484084Y443566D01*
X484025Y443646D01*
X483969Y443728D01*
X483917Y443812D01*
X483868Y443898D01*
X483822Y443986D01*
X483779Y444076D01*
X483740Y444167D01*
X483705Y444260D01*
X483673Y444354D01*
X483645Y444449D01*
X483620Y444545D01*
X483600Y444642D01*
X483582Y444740D01*
X483569Y444838D01*
X483560Y444937D01*
X483554Y445036D01*
X483552Y445135D01*
X488315Y441008D02*
X488399Y440956D01*
X488482Y440901D01*
X488562Y440842D01*
X488640Y440781D01*
X488715Y440717D01*
X488788Y440649D01*
X488859Y440579D01*
X488926Y440507D01*
X488991Y440432D01*
X489053Y440354D01*
X489112Y440274D01*
X489168Y440192D01*
X489220Y440108D01*
X489269Y440022D01*
X489315Y439934D01*
X489358Y439844D01*
X489397Y439753D01*
X489432Y439660D01*
X489464Y439566D01*
X489492Y439471D01*
X489517Y439375D01*
X489537Y439278D01*
X489555Y439180D01*
X489568Y439082D01*
X489577Y438983D01*
X489583Y438884D01*
X489585Y438785D01*
X488315Y441008D02*
X484823Y442913D01*
X493649Y447675D02*
X497459Y436245D01*
X501269Y447675D01*
X505714Y445135D02*
X508889Y447675D01*
X508889Y436245D01*
X505714Y436245D02*
X512064Y436245D01*
D14*
X347800Y321800D02*
X347802Y321863D01*
X347808Y321925D01*
X347818Y321987D01*
X347831Y322049D01*
X347849Y322109D01*
X347870Y322168D01*
X347895Y322226D01*
X347924Y322282D01*
X347956Y322336D01*
X347991Y322388D01*
X348029Y322437D01*
X348071Y322485D01*
X348115Y322529D01*
X348163Y322571D01*
X348212Y322609D01*
X348264Y322644D01*
X348318Y322676D01*
X348374Y322705D01*
X348432Y322730D01*
X348491Y322751D01*
X348551Y322769D01*
X348613Y322782D01*
X348675Y322792D01*
X348737Y322798D01*
X348800Y322800D01*
X348863Y322798D01*
X348925Y322792D01*
X348987Y322782D01*
X349049Y322769D01*
X349109Y322751D01*
X349168Y322730D01*
X349226Y322705D01*
X349282Y322676D01*
X349336Y322644D01*
X349388Y322609D01*
X349437Y322571D01*
X349485Y322529D01*
X349529Y322485D01*
X349571Y322437D01*
X349609Y322388D01*
X349644Y322336D01*
X349676Y322282D01*
X349705Y322226D01*
X349730Y322168D01*
X349751Y322109D01*
X349769Y322049D01*
X349782Y321987D01*
X349792Y321925D01*
X349798Y321863D01*
X349800Y321800D01*
X349798Y321737D01*
X349792Y321675D01*
X349782Y321613D01*
X349769Y321551D01*
X349751Y321491D01*
X349730Y321432D01*
X349705Y321374D01*
X349676Y321318D01*
X349644Y321264D01*
X349609Y321212D01*
X349571Y321163D01*
X349529Y321115D01*
X349485Y321071D01*
X349437Y321029D01*
X349388Y320991D01*
X349336Y320956D01*
X349282Y320924D01*
X349226Y320895D01*
X349168Y320870D01*
X349109Y320849D01*
X349049Y320831D01*
X348987Y320818D01*
X348925Y320808D01*
X348863Y320802D01*
X348800Y320800D01*
X348737Y320802D01*
X348675Y320808D01*
X348613Y320818D01*
X348551Y320831D01*
X348491Y320849D01*
X348432Y320870D01*
X348374Y320895D01*
X348318Y320924D01*
X348264Y320956D01*
X348212Y320991D01*
X348163Y321029D01*
X348115Y321071D01*
X348071Y321115D01*
X348029Y321163D01*
X347991Y321212D01*
X347956Y321264D01*
X347924Y321318D01*
X347895Y321374D01*
X347870Y321432D01*
X347849Y321491D01*
X347831Y321551D01*
X347818Y321613D01*
X347808Y321675D01*
X347802Y321737D01*
X347800Y321800D01*
D15*
X352050Y318550D02*
X384550Y318550D01*
X384550Y291050D01*
X352050Y291050D01*
X352050Y318550D01*
X349050Y321800D02*
X348550Y321800D01*
D16*
X689100Y274100D03*
D17*
X694100Y307100D02*
X700100Y307100D01*
X700100Y297100D01*
X700100Y287100D02*
X700100Y277100D01*
X694100Y277100D01*
X652100Y277100D02*
X646100Y277100D01*
X646100Y287100D01*
X646100Y297100D02*
X646100Y307100D01*
X652100Y307100D01*
D12*
X669100Y307100D02*
X669102Y307226D01*
X669108Y307351D01*
X669118Y307476D01*
X669132Y307601D01*
X669149Y307726D01*
X669171Y307850D01*
X669196Y307973D01*
X669226Y308095D01*
X669259Y308216D01*
X669296Y308336D01*
X669336Y308455D01*
X669381Y308572D01*
X669429Y308689D01*
X669481Y308803D01*
X669536Y308916D01*
X669595Y309027D01*
X669657Y309136D01*
X669723Y309243D01*
X669792Y309348D01*
X669864Y309451D01*
X669939Y309552D01*
X670018Y309650D01*
X670100Y309745D01*
X670184Y309838D01*
X670272Y309928D01*
X670362Y310016D01*
X670455Y310100D01*
X670550Y310182D01*
X670648Y310261D01*
X670749Y310336D01*
X670852Y310408D01*
X670957Y310477D01*
X671064Y310543D01*
X671173Y310605D01*
X671284Y310664D01*
X671397Y310719D01*
X671511Y310771D01*
X671628Y310819D01*
X671745Y310864D01*
X671864Y310904D01*
X671984Y310941D01*
X672105Y310974D01*
X672227Y311004D01*
X672350Y311029D01*
X672474Y311051D01*
X672599Y311068D01*
X672724Y311082D01*
X672849Y311092D01*
X672974Y311098D01*
X673100Y311100D01*
X673226Y311098D01*
X673351Y311092D01*
X673476Y311082D01*
X673601Y311068D01*
X673726Y311051D01*
X673850Y311029D01*
X673973Y311004D01*
X674095Y310974D01*
X674216Y310941D01*
X674336Y310904D01*
X674455Y310864D01*
X674572Y310819D01*
X674689Y310771D01*
X674803Y310719D01*
X674916Y310664D01*
X675027Y310605D01*
X675136Y310543D01*
X675243Y310477D01*
X675348Y310408D01*
X675451Y310336D01*
X675552Y310261D01*
X675650Y310182D01*
X675745Y310100D01*
X675838Y310016D01*
X675928Y309928D01*
X676016Y309838D01*
X676100Y309745D01*
X676182Y309650D01*
X676261Y309552D01*
X676336Y309451D01*
X676408Y309348D01*
X676477Y309243D01*
X676543Y309136D01*
X676605Y309027D01*
X676664Y308916D01*
X676719Y308803D01*
X676771Y308689D01*
X676819Y308572D01*
X676864Y308455D01*
X676904Y308336D01*
X676941Y308216D01*
X676974Y308095D01*
X677004Y307973D01*
X677029Y307850D01*
X677051Y307726D01*
X677068Y307601D01*
X677082Y307476D01*
X677092Y307351D01*
X677098Y307226D01*
X677100Y307100D01*
D18*
X648854Y311124D02*
X648854Y314426D01*
X648854Y311124D02*
X648856Y311054D01*
X648862Y310984D01*
X648871Y310915D01*
X648885Y310846D01*
X648902Y310778D01*
X648923Y310712D01*
X648947Y310646D01*
X648975Y310582D01*
X649007Y310520D01*
X649042Y310459D01*
X649080Y310400D01*
X649122Y310344D01*
X649166Y310290D01*
X649214Y310238D01*
X649264Y310190D01*
X649317Y310144D01*
X649372Y310101D01*
X649429Y310061D01*
X649489Y310024D01*
X649551Y309991D01*
X649614Y309961D01*
X649679Y309935D01*
X649745Y309912D01*
X649812Y309893D01*
X649881Y309878D01*
X649950Y309866D01*
X650019Y309858D01*
X650089Y309854D01*
X650159Y309854D01*
X650229Y309858D01*
X650298Y309866D01*
X650367Y309878D01*
X650436Y309893D01*
X650503Y309912D01*
X650569Y309935D01*
X650634Y309961D01*
X650697Y309991D01*
X650759Y310024D01*
X650819Y310061D01*
X650876Y310101D01*
X650931Y310144D01*
X650984Y310190D01*
X651034Y310238D01*
X651082Y310290D01*
X651126Y310344D01*
X651168Y310400D01*
X651206Y310459D01*
X651241Y310520D01*
X651273Y310582D01*
X651301Y310646D01*
X651325Y310712D01*
X651346Y310778D01*
X651363Y310846D01*
X651377Y310915D01*
X651386Y310984D01*
X651392Y311054D01*
X651394Y311124D01*
X651394Y314426D01*
X654975Y314426D02*
X655041Y314424D01*
X655108Y314418D01*
X655173Y314409D01*
X655239Y314395D01*
X655303Y314378D01*
X655366Y314357D01*
X655428Y314333D01*
X655488Y314304D01*
X655547Y314273D01*
X655603Y314238D01*
X655658Y314200D01*
X655710Y314159D01*
X655759Y314114D01*
X655806Y314067D01*
X655851Y314018D01*
X655892Y313966D01*
X655930Y313911D01*
X655965Y313855D01*
X655996Y313796D01*
X656025Y313736D01*
X656049Y313674D01*
X656070Y313611D01*
X656087Y313547D01*
X656101Y313481D01*
X656110Y313416D01*
X656116Y313349D01*
X656118Y313283D01*
X654975Y314426D02*
X654901Y314424D01*
X654828Y314419D01*
X654754Y314409D01*
X654682Y314396D01*
X654610Y314380D01*
X654539Y314360D01*
X654469Y314336D01*
X654400Y314309D01*
X654333Y314278D01*
X654267Y314244D01*
X654204Y314207D01*
X654142Y314167D01*
X654082Y314123D01*
X654025Y314077D01*
X653969Y314028D01*
X653917Y313976D01*
X653867Y313921D01*
X653820Y313864D01*
X653776Y313805D01*
X653735Y313744D01*
X653697Y313680D01*
X653662Y313615D01*
X653631Y313548D01*
X653603Y313480D01*
X653578Y313410D01*
X655738Y312394D02*
X655785Y312441D01*
X655829Y312490D01*
X655870Y312542D01*
X655909Y312596D01*
X655944Y312652D01*
X655977Y312710D01*
X656006Y312769D01*
X656032Y312830D01*
X656055Y312892D01*
X656075Y312956D01*
X656090Y313020D01*
X656103Y313085D01*
X656112Y313151D01*
X656117Y313217D01*
X656119Y313283D01*
X655737Y312394D02*
X653578Y309854D01*
X656118Y309854D01*
M02*
