G04 EAGLE Gerber RS-274X export*
G75*
%MOMM*%
%FSLAX34Y34*%
%LPD*%
%INSolderpaste Top*%
%IPPOS*%
%AMOC8*
5,1,8,0,0,1.08239X$1,22.5*%
G01*
%ADD10R,1.100000X1.000000*%
%ADD11R,1.200000X2.000000*%
%ADD12R,0.600000X1.350000*%
%ADD13R,0.450000X0.250000*%
%ADD14R,0.250000X0.450000*%
%ADD15R,0.500000X0.600000*%
%ADD16R,0.600000X0.500000*%


D10*
X93100Y215900D03*
X110100Y215900D03*
X55000Y215900D03*
X72000Y215900D03*
D11*
X99000Y102950D03*
X155000Y102950D03*
D12*
X112000Y139700D03*
X122000Y139700D03*
X132000Y139700D03*
X142000Y139700D03*
D10*
X131200Y215900D03*
X148200Y215900D03*
X131200Y177800D03*
X148200Y177800D03*
X93100Y177800D03*
X110100Y177800D03*
X55000Y177800D03*
X72000Y177800D03*
D13*
X102550Y58300D03*
X102550Y53300D03*
X102550Y48300D03*
X102550Y43300D03*
D14*
X109300Y41550D03*
X114300Y41550D03*
X119300Y41550D03*
D13*
X126050Y43300D03*
X126050Y48300D03*
X126050Y53300D03*
X126050Y58300D03*
D14*
X119300Y60050D03*
X114300Y60050D03*
X109300Y60050D03*
D15*
X34800Y105800D03*
X42800Y105800D03*
X50800Y105800D03*
X58800Y105800D03*
X66800Y105800D03*
D16*
X67300Y114300D03*
D15*
X66800Y122800D03*
X58800Y122800D03*
X50800Y122800D03*
X42800Y122800D03*
X34800Y122800D03*
D16*
X34300Y114300D03*
M02*
