G04 EAGLE Gerber RS-274X export*
G75*
%MOMM*%
%FSLAX34Y34*%
%LPD*%
%INSoldermask Top*%
%IPPOS*%
%AMOC8*
5,1,8,0,0,1.08239X$1,22.5*%
G01*
%ADD10R,1.303200X1.203200*%
%ADD11C,1.727200*%
%ADD12R,0.653200X0.453200*%
%ADD13R,0.453200X0.653200*%
%ADD14R,0.703200X1.103200*%
%ADD15R,1.603200X0.703200*%
%ADD16R,0.750000X0.450000*%
%ADD17C,0.959600*%


D10*
X93100Y203200D03*
X110100Y203200D03*
X55000Y203200D03*
X72000Y203200D03*
X131200Y203200D03*
X148200Y203200D03*
X131200Y165100D03*
X148200Y165100D03*
X93100Y165100D03*
X110100Y165100D03*
X55000Y165100D03*
X72000Y165100D03*
D11*
X50800Y121920D02*
X50800Y106680D01*
X76200Y106680D02*
X76200Y121920D01*
X101600Y121920D02*
X101600Y106680D01*
X127000Y106680D02*
X127000Y121920D01*
D12*
X102550Y71000D03*
X102550Y66000D03*
X102550Y61000D03*
X102550Y56000D03*
D13*
X109300Y54250D03*
X114300Y54250D03*
X119300Y54250D03*
D12*
X126050Y56000D03*
X126050Y61000D03*
X126050Y66000D03*
X126050Y71000D03*
D13*
X119300Y72750D03*
X114300Y72750D03*
X109300Y72750D03*
D14*
X66800Y53500D03*
X58800Y53500D03*
X50800Y53500D03*
X42800Y53500D03*
X34800Y53500D03*
D15*
X30300Y63500D03*
D14*
X34800Y73500D03*
X42800Y73500D03*
X50800Y73500D03*
X58800Y73500D03*
X66800Y73500D03*
D15*
X71300Y63500D03*
D16*
X67050Y56750D03*
D17*
X108204Y45720D03*
X94488Y73152D03*
X137160Y64008D03*
X137160Y192024D03*
X94488Y64008D03*
M02*
